<svg width="154" height="64" viewBox="0 0 154 64" fill="none" xmlns="http://www.w3.org/2000/svg">
<rect width="154" height="64" rx="15" fill="black"/>
<rect width="154" height="64" rx="15" fill="url(#paint0_linear)"/>
<rect width="154" height="64" rx="15" fill="url(#paint1_linear)"/>
<path d="M18.2275 33.9395C18.0693 35.293 17.5684 36.3389 16.7246 37.0771C15.8867 37.8096 14.7705 38.1758 13.376 38.1758C11.8643 38.1758 10.6514 37.6338 9.7373 36.5498C8.8291 35.4658 8.375 34.0156 8.375 32.1992V30.9688C8.375 29.7793 8.58594 28.7334 9.00781 27.8311C9.43555 26.9287 10.0391 26.2373 10.8184 25.7568C11.5977 25.2705 12.5 25.0273 13.5254 25.0273C14.8848 25.0273 15.9746 25.4082 16.7949 26.1699C17.6152 26.9258 18.0928 27.9746 18.2275 29.3164H16.5312C16.3848 28.2969 16.0654 27.5586 15.5732 27.1016C15.0869 26.6445 14.4043 26.416 13.5254 26.416C12.4473 26.416 11.6006 26.8145 10.9854 27.6113C10.376 28.4082 10.0713 29.542 10.0713 31.0127V32.252C10.0713 33.6406 10.3613 34.7451 10.9414 35.5654C11.5215 36.3857 12.333 36.7959 13.376 36.7959C14.3135 36.7959 15.0312 36.585 15.5293 36.1631C16.0332 35.7354 16.3672 34.9941 16.5312 33.9395H18.2275ZM24.8809 29.9492C24.6348 29.9082 24.3682 29.8877 24.0811 29.8877C23.0146 29.8877 22.291 30.3418 21.9102 31.25V38H20.2842V28.4902H21.8662L21.8926 29.5889C22.4258 28.7393 23.1816 28.3145 24.1602 28.3145C24.4766 28.3145 24.7168 28.3555 24.8809 28.4375V29.9492ZM30.1543 38.1758C28.8652 38.1758 27.8164 37.7539 27.0078 36.9102C26.1992 36.0605 25.7949 34.9268 25.7949 33.5088V33.21C25.7949 32.2666 25.9736 31.4258 26.3311 30.6875C26.6943 29.9434 27.1982 29.3633 27.8428 28.9473C28.4932 28.5254 29.1963 28.3145 29.9521 28.3145C31.1885 28.3145 32.1494 28.7217 32.835 29.5361C33.5205 30.3506 33.8633 31.5166 33.8633 33.0342V33.7109H27.4209C27.4443 34.6484 27.7168 35.4072 28.2383 35.9873C28.7656 36.5615 29.4336 36.8486 30.2422 36.8486C30.8164 36.8486 31.3027 36.7314 31.7012 36.4971C32.0996 36.2627 32.4482 35.9521 32.7471 35.5654L33.7402 36.3389C32.9434 37.5635 31.748 38.1758 30.1543 38.1758ZM29.9521 29.6504C29.2959 29.6504 28.7451 29.8906 28.2998 30.3711C27.8545 30.8457 27.5791 31.5137 27.4736 32.375H32.2373V32.252C32.1904 31.4258 31.9678 30.7871 31.5693 30.3359C31.1709 29.8789 30.6318 29.6504 29.9521 29.6504ZM41.624 38C41.5303 37.8125 41.4541 37.4785 41.3955 36.998C40.6396 37.7832 39.7373 38.1758 38.6885 38.1758C37.751 38.1758 36.9805 37.9121 36.377 37.3848C35.7793 36.8516 35.4805 36.1777 35.4805 35.3633C35.4805 34.373 35.8555 33.6055 36.6055 33.0605C37.3613 32.5098 38.4219 32.2344 39.7871 32.2344H41.3691V31.4873C41.3691 30.9189 41.1992 30.4678 40.8594 30.1338C40.5195 29.7939 40.0186 29.624 39.3564 29.624C38.7764 29.624 38.29 29.7705 37.8975 30.0635C37.5049 30.3564 37.3086 30.7109 37.3086 31.127H35.6738C35.6738 30.6523 35.8408 30.1953 36.1748 29.7559C36.5146 29.3105 36.9717 28.959 37.5459 28.7012C38.126 28.4434 38.7617 28.3145 39.4531 28.3145C40.5488 28.3145 41.4072 28.5898 42.0283 29.1406C42.6494 29.6855 42.9717 30.4385 42.9951 31.3994V35.7764C42.9951 36.6494 43.1064 37.3438 43.3291 37.8594V38H41.624ZM38.9258 36.7607C39.4355 36.7607 39.9189 36.6289 40.376 36.3652C40.833 36.1016 41.1641 35.7588 41.3691 35.3369V33.3857H40.0947C38.1025 33.3857 37.1064 33.9688 37.1064 35.1348C37.1064 35.6445 37.2764 36.043 37.6162 36.3301C37.9561 36.6172 38.3926 36.7607 38.9258 36.7607ZM47.75 26.1875V28.4902H49.5254V29.7471H47.75V35.6445C47.75 36.0254 47.8291 36.3125 47.9873 36.5059C48.1455 36.6934 48.415 36.7871 48.7959 36.7871C48.9834 36.7871 49.2412 36.752 49.5693 36.6816V38C49.1416 38.1172 48.7256 38.1758 48.3213 38.1758C47.5947 38.1758 47.0469 37.9561 46.6777 37.5166C46.3086 37.0771 46.124 36.4531 46.124 35.6445V29.7471H44.3926V28.4902H46.124V26.1875H47.75ZM55.3789 38.1758C54.0898 38.1758 53.041 37.7539 52.2324 36.9102C51.4238 36.0605 51.0195 34.9268 51.0195 33.5088V33.21C51.0195 32.2666 51.1982 31.4258 51.5557 30.6875C51.9189 29.9434 52.4229 29.3633 53.0674 28.9473C53.7178 28.5254 54.4209 28.3145 55.1768 28.3145C56.4131 28.3145 57.374 28.7217 58.0596 29.5361C58.7451 30.3506 59.0879 31.5166 59.0879 33.0342V33.7109H52.6455C52.6689 34.6484 52.9414 35.4072 53.4629 35.9873C53.9902 36.5615 54.6582 36.8486 55.4668 36.8486C56.041 36.8486 56.5273 36.7314 56.9258 36.4971C57.3242 36.2627 57.6729 35.9521 57.9717 35.5654L58.9648 36.3389C58.168 37.5635 56.9727 38.1758 55.3789 38.1758ZM55.1768 29.6504C54.5205 29.6504 53.9697 29.8906 53.5244 30.3711C53.0791 30.8457 52.8037 31.5137 52.6982 32.375H57.4619V32.252C57.415 31.4258 57.1924 30.7871 56.7939 30.3359C56.3955 29.8789 55.8564 29.6504 55.1768 29.6504ZM66.9805 28.4902L67.0332 29.6855C67.7598 28.7715 68.709 28.3145 69.8809 28.3145C71.8906 28.3145 72.9043 29.4482 72.9219 31.7158V38H71.2959V31.707C71.29 31.0215 71.1318 30.5146 70.8213 30.1865C70.5166 29.8584 70.0391 29.6943 69.3887 29.6943C68.8613 29.6943 68.3984 29.835 68 30.1162C67.6016 30.3975 67.291 30.7666 67.0684 31.2236V38H65.4424V28.4902H66.9805ZM79.3203 38.1758C78.0312 38.1758 76.9824 37.7539 76.1738 36.9102C75.3652 36.0605 74.9609 34.9268 74.9609 33.5088V33.21C74.9609 32.2666 75.1396 31.4258 75.4971 30.6875C75.8604 29.9434 76.3643 29.3633 77.0088 28.9473C77.6592 28.5254 78.3623 28.3145 79.1182 28.3145C80.3545 28.3145 81.3154 28.7217 82.001 29.5361C82.6865 30.3506 83.0293 31.5166 83.0293 33.0342V33.7109H76.5869C76.6104 34.6484 76.8828 35.4072 77.4043 35.9873C77.9316 36.5615 78.5996 36.8486 79.4082 36.8486C79.9824 36.8486 80.4688 36.7314 80.8672 36.4971C81.2656 36.2627 81.6143 35.9521 81.9131 35.5654L82.9062 36.3389C82.1094 37.5635 80.9141 38.1758 79.3203 38.1758ZM79.1182 29.6504C78.4619 29.6504 77.9111 29.8906 77.4658 30.3711C77.0205 30.8457 76.7451 31.5137 76.6396 32.375H81.4033V32.252C81.3564 31.4258 81.1338 30.7871 80.7354 30.3359C80.3369 29.8789 79.7979 29.6504 79.1182 29.6504ZM93.3389 35.7588L95.167 28.4902H96.793L94.0244 38H92.7061L90.3945 30.793L88.1445 38H86.8262L84.0664 28.4902H85.6836L87.5557 35.6094L89.7705 28.4902H91.0801L93.3389 35.7588ZM108.79 38C108.696 37.8125 108.62 37.4785 108.562 36.998C107.806 37.7832 106.903 38.1758 105.854 38.1758C104.917 38.1758 104.146 37.9121 103.543 37.3848C102.945 36.8516 102.646 36.1777 102.646 35.3633C102.646 34.373 103.021 33.6055 103.771 33.0605C104.527 32.5098 105.588 32.2344 106.953 32.2344H108.535V31.4873C108.535 30.9189 108.365 30.4678 108.025 30.1338C107.686 29.7939 107.185 29.624 106.522 29.624C105.942 29.624 105.456 29.7705 105.063 30.0635C104.671 30.3564 104.475 30.7109 104.475 31.127H102.84C102.84 30.6523 103.007 30.1953 103.341 29.7559C103.681 29.3105 104.138 28.959 104.712 28.7012C105.292 28.4434 105.928 28.3145 106.619 28.3145C107.715 28.3145 108.573 28.5898 109.194 29.1406C109.815 29.6855 110.138 30.4385 110.161 31.3994V35.7764C110.161 36.6494 110.272 37.3438 110.495 37.8594V38H108.79ZM106.092 36.7607C106.602 36.7607 107.085 36.6289 107.542 36.3652C107.999 36.1016 108.33 35.7588 108.535 35.3369V33.3857H107.261C105.269 33.3857 104.272 33.9688 104.272 35.1348C104.272 35.6445 104.442 36.043 104.782 36.3301C105.122 36.6172 105.559 36.7607 106.092 36.7607ZM117.307 29.9492C117.061 29.9082 116.794 29.8877 116.507 29.8877C115.44 29.8877 114.717 30.3418 114.336 31.25V38H112.71V28.4902H114.292L114.318 29.5889C114.852 28.7393 115.607 28.3145 116.586 28.3145C116.902 28.3145 117.143 28.3555 117.307 28.4375V29.9492ZM122.58 38.1758C121.291 38.1758 120.242 37.7539 119.434 36.9102C118.625 36.0605 118.221 34.9268 118.221 33.5088V33.21C118.221 32.2666 118.399 31.4258 118.757 30.6875C119.12 29.9434 119.624 29.3633 120.269 28.9473C120.919 28.5254 121.622 28.3145 122.378 28.3145C123.614 28.3145 124.575 28.7217 125.261 29.5361C125.946 30.3506 126.289 31.5166 126.289 33.0342V33.7109H119.847C119.87 34.6484 120.143 35.4072 120.664 35.9873C121.191 36.5615 121.859 36.8486 122.668 36.8486C123.242 36.8486 123.729 36.7314 124.127 36.4971C124.525 36.2627 124.874 35.9521 125.173 35.5654L126.166 36.3389C125.369 37.5635 124.174 38.1758 122.58 38.1758ZM122.378 29.6504C121.722 29.6504 121.171 29.8906 120.726 30.3711C120.28 30.8457 120.005 31.5137 119.899 32.375H124.663V32.252C124.616 31.4258 124.394 30.7871 123.995 30.3359C123.597 29.8789 123.058 29.6504 122.378 29.6504ZM129.717 28.4902L129.77 29.6855C130.496 28.7715 131.445 28.3145 132.617 28.3145C134.627 28.3145 135.641 29.4482 135.658 31.7158V38H134.032V31.707C134.026 31.0215 133.868 30.5146 133.558 30.1865C133.253 29.8584 132.775 29.6943 132.125 29.6943C131.598 29.6943 131.135 29.835 130.736 30.1162C130.338 30.3975 130.027 30.7666 129.805 31.2236V38H128.179V28.4902H129.717ZM143.981 38C143.888 37.8125 143.812 37.4785 143.753 36.998C142.997 37.7832 142.095 38.1758 141.046 38.1758C140.108 38.1758 139.338 37.9121 138.734 37.3848C138.137 36.8516 137.838 36.1777 137.838 35.3633C137.838 34.373 138.213 33.6055 138.963 33.0605C139.719 32.5098 140.779 32.2344 142.145 32.2344H143.727V31.4873C143.727 30.9189 143.557 30.4678 143.217 30.1338C142.877 29.7939 142.376 29.624 141.714 29.624C141.134 29.624 140.647 29.7705 140.255 30.0635C139.862 30.3564 139.666 30.7109 139.666 31.127H138.031C138.031 30.6523 138.198 30.1953 138.532 29.7559C138.872 29.3105 139.329 28.959 139.903 28.7012C140.483 28.4434 141.119 28.3145 141.811 28.3145C142.906 28.3145 143.765 28.5898 144.386 29.1406C145.007 29.6855 145.329 30.4385 145.353 31.3994V35.7764C145.353 36.6494 145.464 37.3438 145.687 37.8594V38H143.981ZM141.283 36.7607C141.793 36.7607 142.276 36.6289 142.733 36.3652C143.19 36.1016 143.521 35.7588 143.727 35.3369V33.3857H142.452C140.46 33.3857 139.464 33.9688 139.464 35.1348C139.464 35.6445 139.634 36.043 139.974 36.3301C140.313 36.6172 140.75 36.7607 141.283 36.7607Z" fill="white"/>
<defs>
<linearGradient id="paint0_linear" x1="77" y1="64" x2="77" y2="-4.30088e-06" gradientUnits="userSpaceOnUse">
<stop stop-color="white"/>
<stop offset="0.395833" stop-color="white" stop-opacity="0"/>
</linearGradient>
<linearGradient id="paint1_linear" x1="77" y1="0" x2="77" y2="64" gradientUnits="userSpaceOnUse">
<stop stop-color="white"/>
<stop offset="0.427083" stop-color="white" stop-opacity="0"/>
</linearGradient>
</defs>
</svg>
