<svg width="128" height="128" viewBox="0 0 128 128" fill="none" xmlns="http://www.w3.org/2000/svg">
<rect width="64" height="64" fill="#3950C7"/>
<path d="M8 10C9.11779 8.67206 10.3908 7.64658 12.2222 7.41111C14.0816 7.17204 15.3529 7.8237 16.8889 8.55556C18.3845 9.26815 19.4601 9.4 21.2222 9.4C23.0735 9.4 23.0912 8.22691 24 7" stroke="#AFBEF2" stroke-width="3" stroke-linecap="round" stroke-linejoin="round"/>
<path d="M46 54C47.1178 52.6721 48.3908 51.6466 50.2222 51.4111C52.0816 51.172 53.3529 51.8237 54.8889 52.5556C56.3845 53.2681 57.4601 53.4 59.2222 53.4C61.0735 53.4 61.0912 52.2269 62 51" stroke="#AFBEF2" stroke-width="3" stroke-linecap="round" stroke-linejoin="round"/>
<path d="M16 56C17.1178 54.6721 18.3908 53.6466 20.2222 53.4111C22.0816 53.172 23.3529 53.8237 24.8889 54.5556C26.3845 55.2681 27.4601 55.4 29.2222 55.4C31.0735 55.4 31.0912 54.2269 32 53" stroke="#AFBEF2" stroke-width="3" stroke-linecap="round" stroke-linejoin="round"/>
<path d="M38 40C39.1178 38.6721 40.3908 37.6466 42.2222 37.4111C44.0816 37.172 45.3529 37.8237 46.8889 38.5556C48.3845 39.2681 49.4601 39.4 51.2222 39.4C53.0735 39.4 53.0912 38.2269 54 37" stroke="#AFBEF2" stroke-width="3" stroke-linecap="round" stroke-linejoin="round"/>
<path d="M8 40C9.11779 38.6721 10.3908 37.6466 12.2222 37.4111C14.0816 37.172 15.3529 37.8237 16.8889 38.5556C18.3845 39.2681 19.4601 39.4 21.2222 39.4C23.0735 39.4 23.0912 38.2269 24 37" stroke="#AFBEF2" stroke-width="3" stroke-linecap="round" stroke-linejoin="round"/>
<path d="M46 24C47.1178 22.6721 48.3908 21.6466 50.2222 21.4111C52.0816 21.172 53.3529 21.8237 54.8889 22.5556C56.3845 23.2681 57.4601 23.4 59.2222 23.4C61.0735 23.4 61.0912 22.2269 62 21" stroke="#AFBEF2" stroke-width="3" stroke-linecap="round" stroke-linejoin="round"/>
<path d="M16 24C17.1178 22.6721 18.3908 21.6466 20.2222 21.4111C22.0816 21.172 23.3529 21.8237 24.8889 22.5556C26.3845 23.2681 27.4601 23.4 29.2222 23.4C31.0735 23.4 31.0912 22.2269 32 21" stroke="#AFBEF2" stroke-width="3" stroke-linecap="round" stroke-linejoin="round"/>
<path d="M38 10C39.1178 8.67206 40.3908 7.64658 42.2222 7.41111C44.0816 7.17204 45.3529 7.8237 46.8889 8.55556C48.3845 9.26815 49.4601 9.4 51.2222 9.4C53.0735 9.4 53.0912 8.22691 54 7" stroke="#AFBEF2" stroke-width="3" stroke-linecap="round" stroke-linejoin="round"/>
<rect x="64" width="64" height="64" fill="#3950C7"/>
<path d="M72 10C73.1178 8.67206 74.3908 7.64658 76.2222 7.41111C78.0816 7.17204 79.3529 7.8237 80.8889 8.55556C82.3845 9.26815 83.4601 9.4 85.2222 9.4C87.0735 9.4 87.0912 8.22691 88 7" stroke="#AFBEF2" stroke-width="3" stroke-linecap="round" stroke-linejoin="round"/>
<path d="M110 54C111.118 52.6721 112.391 51.6466 114.222 51.4111C116.082 51.172 117.353 51.8237 118.889 52.5556C120.384 53.2681 121.46 53.4 123.222 53.4C125.073 53.4 125.091 52.2269 126 51" stroke="#AFBEF2" stroke-width="3" stroke-linecap="round" stroke-linejoin="round"/>
<path d="M80 56C81.1178 54.6721 82.3908 53.6466 84.2222 53.4111C86.0816 53.172 87.3529 53.8237 88.8889 54.5556C90.3845 55.2681 91.4601 55.4 93.2222 55.4C95.0735 55.4 95.0912 54.2269 96 53" stroke="#AFBEF2" stroke-width="3" stroke-linecap="round" stroke-linejoin="round"/>
<path d="M102 40C103.118 38.6721 104.391 37.6466 106.222 37.4111C108.082 37.172 109.353 37.8237 110.889 38.5556C112.384 39.2681 113.46 39.4 115.222 39.4C117.073 39.4 117.091 38.2269 118 37" stroke="#AFBEF2" stroke-width="3" stroke-linecap="round" stroke-linejoin="round"/>
<path d="M72 40C73.1178 38.6721 74.3908 37.6466 76.2222 37.4111C78.0816 37.172 79.3529 37.8237 80.8889 38.5556C82.3845 39.2681 83.4601 39.4 85.2222 39.4C87.0735 39.4 87.0912 38.2269 88 37" stroke="#AFBEF2" stroke-width="3" stroke-linecap="round" stroke-linejoin="round"/>
<path d="M110 24C111.118 22.6721 112.391 21.6466 114.222 21.4111C116.082 21.172 117.353 21.8237 118.889 22.5556C120.384 23.2681 121.46 23.4 123.222 23.4C125.073 23.4 125.091 22.2269 126 21" stroke="#AFBEF2" stroke-width="3" stroke-linecap="round" stroke-linejoin="round"/>
<path d="M80 24C81.1178 22.6721 82.3908 21.6466 84.2222 21.4111C86.0816 21.172 87.3529 21.8237 88.8889 22.5556C90.3845 23.2681 91.4601 23.4 93.2222 23.4C95.0735 23.4 95.0912 22.2269 96 21" stroke="#AFBEF2" stroke-width="3" stroke-linecap="round" stroke-linejoin="round"/>
<path d="M102 10C103.118 8.67206 104.391 7.64658 106.222 7.41111C108.082 7.17204 109.353 7.8237 110.889 8.55556C112.384 9.26815 113.46 9.4 115.222 9.4C117.073 9.4 117.091 8.22691 118 7" stroke="#AFBEF2" stroke-width="3" stroke-linecap="round" stroke-linejoin="round"/>
<rect y="64" width="64" height="64" fill="#3950C7"/>
<path d="M8 74C9.11779 72.6721 10.3908 71.6466 12.2222 71.4111C14.0816 71.172 15.3529 71.8237 16.8889 72.5556C18.3845 73.2681 19.4601 73.4 21.2222 73.4C23.0735 73.4 23.0912 72.2269 24 71" stroke="#AFBEF2" stroke-width="3" stroke-linecap="round" stroke-linejoin="round"/>
<path d="M46 118C47.1178 116.672 48.3908 115.647 50.2222 115.411C52.0816 115.172 53.3529 115.824 54.8889 116.556C56.3845 117.268 57.4601 117.4 59.2222 117.4C61.0735 117.4 61.0912 116.227 62 115" stroke="#AFBEF2" stroke-width="3" stroke-linecap="round" stroke-linejoin="round"/>
<path d="M16 120C17.1178 118.672 18.3908 117.647 20.2222 117.411C22.0816 117.172 23.3529 117.824 24.8889 118.556C26.3845 119.268 27.4601 119.4 29.2222 119.4C31.0735 119.4 31.0912 118.227 32 117" stroke="#AFBEF2" stroke-width="3" stroke-linecap="round" stroke-linejoin="round"/>
<path d="M38 104C39.1178 102.672 40.3908 101.647 42.2222 101.411C44.0816 101.172 45.3529 101.824 46.8889 102.556C48.3845 103.268 49.4601 103.4 51.2222 103.4C53.0735 103.4 53.0912 102.227 54 101" stroke="#AFBEF2" stroke-width="3" stroke-linecap="round" stroke-linejoin="round"/>
<path d="M8 104C9.11779 102.672 10.3908 101.647 12.2222 101.411C14.0816 101.172 15.3529 101.824 16.8889 102.556C18.3845 103.268 19.4601 103.4 21.2222 103.4C23.0735 103.4 23.0912 102.227 24 101" stroke="#AFBEF2" stroke-width="3" stroke-linecap="round" stroke-linejoin="round"/>
<path d="M46 88C47.1178 86.6721 48.3908 85.6466 50.2222 85.4111C52.0816 85.172 53.3529 85.8237 54.8889 86.5556C56.3845 87.2681 57.4601 87.4 59.2222 87.4C61.0735 87.4 61.0912 86.2269 62 85" stroke="#AFBEF2" stroke-width="3" stroke-linecap="round" stroke-linejoin="round"/>
<path d="M16 88C17.1178 86.6721 18.3908 85.6466 20.2222 85.4111C22.0816 85.172 23.3529 85.8237 24.8889 86.5556C26.3845 87.2681 27.4601 87.4 29.2222 87.4C31.0735 87.4 31.0912 86.2269 32 85" stroke="#AFBEF2" stroke-width="3" stroke-linecap="round" stroke-linejoin="round"/>
<path d="M38 74C39.1178 72.6721 40.3908 71.6466 42.2222 71.4111C44.0816 71.172 45.3529 71.8237 46.8889 72.5556C48.3845 73.2681 49.4601 73.4 51.2222 73.4C53.0735 73.4 53.0912 72.2269 54 71" stroke="#AFBEF2" stroke-width="3" stroke-linecap="round" stroke-linejoin="round"/>
<rect x="64" y="64" width="64" height="64" fill="#3950C7"/>
<path d="M72 74C73.1178 72.6721 74.3908 71.6466 76.2222 71.4111C78.0816 71.172 79.3529 71.8237 80.8889 72.5556C82.3845 73.2681 83.4601 73.4 85.2222 73.4C87.0735 73.4 87.0912 72.2269 88 71" stroke="#AFBEF2" stroke-width="3" stroke-linecap="round" stroke-linejoin="round"/>
<path d="M110 118C111.118 116.672 112.391 115.647 114.222 115.411C116.082 115.172 117.353 115.824 118.889 116.556C120.384 117.268 121.46 117.4 123.222 117.4C125.073 117.4 125.091 116.227 126 115" stroke="#AFBEF2" stroke-width="3" stroke-linecap="round" stroke-linejoin="round"/>
<path d="M80 120C81.1178 118.672 82.3908 117.647 84.2222 117.411C86.0816 117.172 87.3529 117.824 88.8889 118.556C90.3845 119.268 91.4601 119.4 93.2222 119.4C95.0735 119.4 95.0912 118.227 96 117" stroke="#AFBEF2" stroke-width="3" stroke-linecap="round" stroke-linejoin="round"/>
<path d="M102 104C103.118 102.672 104.391 101.647 106.222 101.411C108.082 101.172 109.353 101.824 110.889 102.556C112.384 103.268 113.46 103.4 115.222 103.4C117.073 103.4 117.091 102.227 118 101" stroke="#AFBEF2" stroke-width="3" stroke-linecap="round" stroke-linejoin="round"/>
<path d="M72 104C73.1178 102.672 74.3908 101.647 76.2222 101.411C78.0816 101.172 79.3529 101.824 80.8889 102.556C82.3845 103.268 83.4601 103.4 85.2222 103.4C87.0735 103.4 87.0912 102.227 88 101" stroke="#AFBEF2" stroke-width="3" stroke-linecap="round" stroke-linejoin="round"/>
<path d="M110 88C111.118 86.6721 112.391 85.6466 114.222 85.4111C116.082 85.172 117.353 85.8237 118.889 86.5556C120.384 87.2681 121.46 87.4 123.222 87.4C125.073 87.4 125.091 86.2269 126 85" stroke="#AFBEF2" stroke-width="3" stroke-linecap="round" stroke-linejoin="round"/>
<path d="M80 88C81.1178 86.6721 82.3908 85.6466 84.2222 85.4111C86.0816 85.172 87.3529 85.8237 88.8889 86.5556C90.3845 87.2681 91.4601 87.4 93.2222 87.4C95.0735 87.4 95.0912 86.2269 96 85" stroke="#AFBEF2" stroke-width="3" stroke-linecap="round" stroke-linejoin="round"/>
<path d="M102 74C103.118 72.6721 104.391 71.6466 106.222 71.4111C108.082 71.172 109.353 71.8237 110.889 72.5556C112.384 73.2681 113.46 73.4 115.222 73.4C117.073 73.4 117.091 72.2269 118 71" stroke="#AFBEF2" stroke-width="3" stroke-linecap="round" stroke-linejoin="round"/>
</svg>
