<svg width="64" height="64" viewBox="0 0 64 64" fill="none" xmlns="http://www.w3.org/2000/svg">
<circle cx="17" cy="17" r="15" fill="#41DB3E"/>
<circle cx="17" cy="17" r="15" fill="url(#paint0_linear)"/>
<circle cx="28" cy="28" r="10" fill="#6AD267"/>
<circle cx="28" cy="28" r="10" fill="url(#paint1_linear)"/>
<circle cx="54" cy="31" r="10" fill="#6AD267"/>
<circle cx="54" cy="31" r="10" fill="url(#paint2_linear)"/>
<circle cx="33" cy="10" r="10" fill="#6AD267"/>
<circle cx="33" cy="10" r="10" fill="url(#paint3_linear)"/>
<circle cx="9.99998" cy="36" r="10" fill="#6AD267"/>
<circle cx="9.99998" cy="36" r="10" fill="url(#paint4_linear)"/>
<circle cx="47" cy="17" r="15" fill="#41DB3E"/>
<circle cx="47" cy="17" r="15" fill="url(#paint5_linear)"/>
<circle cx="17" cy="47" r="15" fill="#41DB3E"/>
<circle cx="17" cy="47" r="15" fill="url(#paint6_linear)"/>
<circle cx="47" cy="47" r="15" fill="#41DB3E"/>
<circle cx="47" cy="47" r="15" fill="url(#paint7_linear)"/>
<circle cx="32" cy="54" r="10" fill="#6AD267"/>
<circle cx="32" cy="54" r="10" fill="url(#paint8_linear)"/>
<circle cx="38" cy="36" r="10" fill="#6AD267"/>
<circle cx="38" cy="36" r="10" fill="url(#paint9_linear)"/>
<circle cx="48" cy="26" r="10" fill="#6AD267"/>
<circle cx="48" cy="26" r="10" fill="url(#paint10_linear)"/>
<circle cx="31" cy="46" r="10" fill="#6AD267"/>
<circle cx="31" cy="46" r="10" fill="url(#paint11_linear)"/>
<defs>
<linearGradient id="paint0_linear" x1="17" y1="2" x2="17" y2="32" gradientUnits="userSpaceOnUse">
<stop stop-color="#12421D"/>
<stop offset="1" stop-color="white" stop-opacity="0"/>
</linearGradient>
<linearGradient id="paint1_linear" x1="28" y1="18" x2="28" y2="38" gradientUnits="userSpaceOnUse">
<stop stop-color="#12421D"/>
<stop offset="1" stop-color="white" stop-opacity="0"/>
</linearGradient>
<linearGradient id="paint2_linear" x1="54" y1="21" x2="54" y2="41" gradientUnits="userSpaceOnUse">
<stop stop-color="#12421D"/>
<stop offset="1" stop-color="white" stop-opacity="0"/>
</linearGradient>
<linearGradient id="paint3_linear" x1="33" y1="0" x2="33" y2="20" gradientUnits="userSpaceOnUse">
<stop stop-color="#12421D"/>
<stop offset="1" stop-color="white" stop-opacity="0"/>
</linearGradient>
<linearGradient id="paint4_linear" x1="9.99998" y1="26" x2="9.99998" y2="46" gradientUnits="userSpaceOnUse">
<stop stop-color="#12421D"/>
<stop offset="1" stop-color="white" stop-opacity="0"/>
</linearGradient>
<linearGradient id="paint5_linear" x1="47" y1="2" x2="47" y2="32" gradientUnits="userSpaceOnUse">
<stop stop-color="#12421D"/>
<stop offset="1" stop-color="white" stop-opacity="0"/>
</linearGradient>
<linearGradient id="paint6_linear" x1="17" y1="32" x2="17" y2="62" gradientUnits="userSpaceOnUse">
<stop stop-color="#12421D"/>
<stop offset="1" stop-color="white" stop-opacity="0"/>
</linearGradient>
<linearGradient id="paint7_linear" x1="47" y1="32" x2="47" y2="62" gradientUnits="userSpaceOnUse">
<stop stop-color="#12421D"/>
<stop offset="1" stop-color="white" stop-opacity="0"/>
</linearGradient>
<linearGradient id="paint8_linear" x1="32" y1="44" x2="32" y2="64" gradientUnits="userSpaceOnUse">
<stop stop-color="#12421D"/>
<stop offset="1" stop-color="white" stop-opacity="0"/>
</linearGradient>
<linearGradient id="paint9_linear" x1="38" y1="26" x2="38" y2="46" gradientUnits="userSpaceOnUse">
<stop stop-color="#12421D"/>
<stop offset="1" stop-color="white" stop-opacity="0"/>
</linearGradient>
<linearGradient id="paint10_linear" x1="48" y1="16" x2="48" y2="36" gradientUnits="userSpaceOnUse">
<stop stop-color="#12421D"/>
<stop offset="1" stop-color="white" stop-opacity="0"/>
</linearGradient>
<linearGradient id="paint11_linear" x1="31" y1="36" x2="31" y2="56" gradientUnits="userSpaceOnUse">
<stop stop-color="#12421D"/>
<stop offset="1" stop-color="white" stop-opacity="0"/>
</linearGradient>
</defs>
</svg>
