<svg width="256" height="256" viewBox="0 0 256 256" fill="none" xmlns="http://www.w3.org/2000/svg">
<rect x="128" width="64" height="64" fill="#C4C4C4"/>
<line x1="131.939" y1="59.9393" x2="141.939" y2="49.9393" stroke="#F4F4F4" stroke-width="3"/>
<line x1="142.939" y1="48.9393" x2="153.939" y2="37.9393" stroke="#F4F4F4" stroke-width="3"/>
<line x1="154.939" y1="36.9393" x2="165.939" y2="25.9393" stroke="#F4F4F4" stroke-width="3"/>
<line x1="166.939" y1="24.9393" x2="177.939" y2="13.9393" stroke="#F4F4F4" stroke-width="3"/>
<line x1="178.939" y1="12.9393" x2="188.939" y2="2.93934" stroke="#F4F4F4" stroke-width="3"/>
<line x1="129.939" y1="31.9393" x2="135.939" y2="25.9393" stroke="#F4F4F4" stroke-width="3"/>
<line x1="153.939" y1="7.93934" x2="159.939" y2="1.93934" stroke="#F4F4F4" stroke-width="3"/>
<line x1="145.939" y1="15.9393" x2="151.939" y2="9.93934" stroke="#F4F4F4" stroke-width="3"/>
<line x1="137.939" y1="23.9393" x2="143.939" y2="17.9393" stroke="#F4F4F4" stroke-width="3"/>
<line x1="162.939" y1="61.9393" x2="168.939" y2="55.9393" stroke="#F4F4F4" stroke-width="3"/>
<line x1="183.939" y1="40.9393" x2="189.939" y2="34.9393" stroke="#F4F4F4" stroke-width="3"/>
<line x1="176.939" y1="47.9393" x2="182.939" y2="41.9393" stroke="#F4F4F4" stroke-width="3"/>
<line x1="169.939" y1="54.9393" x2="175.939" y2="48.9393" stroke="#F4F4F4" stroke-width="3"/>
<rect x="192" width="64" height="64" fill="#C4C4C4"/>
<line x1="195.939" y1="59.9393" x2="205.939" y2="49.9393" stroke="#F4F4F4" stroke-width="3"/>
<line x1="206.939" y1="48.9393" x2="217.939" y2="37.9393" stroke="#F4F4F4" stroke-width="3"/>
<line x1="218.939" y1="36.9393" x2="229.939" y2="25.9393" stroke="#F4F4F4" stroke-width="3"/>
<line x1="230.939" y1="24.9393" x2="241.939" y2="13.9393" stroke="#F4F4F4" stroke-width="3"/>
<line x1="242.939" y1="12.9393" x2="252.939" y2="2.93934" stroke="#F4F4F4" stroke-width="3"/>
<line x1="193.939" y1="31.9393" x2="199.939" y2="25.9393" stroke="#F4F4F4" stroke-width="3"/>
<line x1="217.939" y1="7.93934" x2="223.939" y2="1.93934" stroke="#F4F4F4" stroke-width="3"/>
<line x1="209.939" y1="15.9393" x2="215.939" y2="9.93934" stroke="#F4F4F4" stroke-width="3"/>
<line x1="201.939" y1="23.9393" x2="207.939" y2="17.9393" stroke="#F4F4F4" stroke-width="3"/>
<line x1="226.939" y1="61.9393" x2="232.939" y2="55.9393" stroke="#F4F4F4" stroke-width="3"/>
<line x1="247.939" y1="40.9393" x2="253.939" y2="34.9393" stroke="#F4F4F4" stroke-width="3"/>
<line x1="240.939" y1="47.9393" x2="246.939" y2="41.9393" stroke="#F4F4F4" stroke-width="3"/>
<line x1="233.939" y1="54.9393" x2="239.939" y2="48.9393" stroke="#F4F4F4" stroke-width="3"/>
<rect x="128" y="64" width="64" height="64" fill="#C4C4C4"/>
<line x1="131.939" y1="123.939" x2="141.939" y2="113.939" stroke="#F4F4F4" stroke-width="3"/>
<line x1="142.939" y1="112.939" x2="153.939" y2="101.939" stroke="#F4F4F4" stroke-width="3"/>
<line x1="154.939" y1="100.939" x2="165.939" y2="89.9393" stroke="#F4F4F4" stroke-width="3"/>
<line x1="166.939" y1="88.9393" x2="177.939" y2="77.9393" stroke="#F4F4F4" stroke-width="3"/>
<line x1="178.939" y1="76.9393" x2="188.939" y2="66.9393" stroke="#F4F4F4" stroke-width="3"/>
<line x1="129.939" y1="95.9393" x2="135.939" y2="89.9393" stroke="#F4F4F4" stroke-width="3"/>
<line x1="153.939" y1="71.9393" x2="159.939" y2="65.9393" stroke="#F4F4F4" stroke-width="3"/>
<line x1="145.939" y1="79.9393" x2="151.939" y2="73.9393" stroke="#F4F4F4" stroke-width="3"/>
<line x1="137.939" y1="87.9393" x2="143.939" y2="81.9393" stroke="#F4F4F4" stroke-width="3"/>
<line x1="162.939" y1="125.939" x2="168.939" y2="119.939" stroke="#F4F4F4" stroke-width="3"/>
<line x1="183.939" y1="104.939" x2="189.939" y2="98.9393" stroke="#F4F4F4" stroke-width="3"/>
<line x1="176.939" y1="111.939" x2="182.939" y2="105.939" stroke="#F4F4F4" stroke-width="3"/>
<line x1="169.939" y1="118.939" x2="175.939" y2="112.939" stroke="#F4F4F4" stroke-width="3"/>
<rect x="192" y="64" width="64" height="64" fill="#C4C4C4"/>
<line x1="195.939" y1="123.939" x2="205.939" y2="113.939" stroke="#F4F4F4" stroke-width="3"/>
<line x1="206.939" y1="112.939" x2="217.939" y2="101.939" stroke="#F4F4F4" stroke-width="3"/>
<line x1="218.939" y1="100.939" x2="229.939" y2="89.9393" stroke="#F4F4F4" stroke-width="3"/>
<line x1="230.939" y1="88.9393" x2="241.939" y2="77.9393" stroke="#F4F4F4" stroke-width="3"/>
<line x1="242.939" y1="76.9393" x2="252.939" y2="66.9393" stroke="#F4F4F4" stroke-width="3"/>
<line x1="193.939" y1="95.9393" x2="199.939" y2="89.9393" stroke="#F4F4F4" stroke-width="3"/>
<line x1="217.939" y1="71.9393" x2="223.939" y2="65.9393" stroke="#F4F4F4" stroke-width="3"/>
<line x1="209.939" y1="79.9393" x2="215.939" y2="73.9393" stroke="#F4F4F4" stroke-width="3"/>
<line x1="201.939" y1="87.9393" x2="207.939" y2="81.9393" stroke="#F4F4F4" stroke-width="3"/>
<line x1="226.939" y1="125.939" x2="232.939" y2="119.939" stroke="#F4F4F4" stroke-width="3"/>
<line x1="247.939" y1="104.939" x2="253.939" y2="98.9393" stroke="#F4F4F4" stroke-width="3"/>
<line x1="240.939" y1="111.939" x2="246.939" y2="105.939" stroke="#F4F4F4" stroke-width="3"/>
<line x1="233.939" y1="118.939" x2="239.939" y2="112.939" stroke="#F4F4F4" stroke-width="3"/>
<rect y="128" width="64" height="64" fill="#C4C4C4"/>
<line x1="3.93934" y1="187.939" x2="13.9393" y2="177.939" stroke="#F4F4F4" stroke-width="3"/>
<line x1="14.9393" y1="176.939" x2="25.9393" y2="165.939" stroke="#F4F4F4" stroke-width="3"/>
<line x1="26.9393" y1="164.939" x2="37.9393" y2="153.939" stroke="#F4F4F4" stroke-width="3"/>
<line x1="38.9393" y1="152.939" x2="49.9393" y2="141.939" stroke="#F4F4F4" stroke-width="3"/>
<line x1="50.9393" y1="140.939" x2="60.9393" y2="130.939" stroke="#F4F4F4" stroke-width="3"/>
<line x1="1.93934" y1="159.939" x2="7.93934" y2="153.939" stroke="#F4F4F4" stroke-width="3"/>
<line x1="25.9393" y1="135.939" x2="31.9393" y2="129.939" stroke="#F4F4F4" stroke-width="3"/>
<line x1="17.9393" y1="143.939" x2="23.9393" y2="137.939" stroke="#F4F4F4" stroke-width="3"/>
<line x1="9.93934" y1="151.939" x2="15.9393" y2="145.939" stroke="#F4F4F4" stroke-width="3"/>
<line x1="34.9393" y1="189.939" x2="40.9393" y2="183.939" stroke="#F4F4F4" stroke-width="3"/>
<line x1="55.9393" y1="168.939" x2="61.9393" y2="162.939" stroke="#F4F4F4" stroke-width="3"/>
<line x1="48.9393" y1="175.939" x2="54.9393" y2="169.939" stroke="#F4F4F4" stroke-width="3"/>
<line x1="41.9393" y1="182.939" x2="47.9393" y2="176.939" stroke="#F4F4F4" stroke-width="3"/>
<rect x="64" y="128" width="64" height="64" fill="#C4C4C4"/>
<line x1="67.9393" y1="187.939" x2="77.9393" y2="177.939" stroke="#F4F4F4" stroke-width="3"/>
<line x1="78.9393" y1="176.939" x2="89.9393" y2="165.939" stroke="#F4F4F4" stroke-width="3"/>
<line x1="90.9393" y1="164.939" x2="101.939" y2="153.939" stroke="#F4F4F4" stroke-width="3"/>
<line x1="102.939" y1="152.939" x2="113.939" y2="141.939" stroke="#F4F4F4" stroke-width="3"/>
<line x1="114.939" y1="140.939" x2="124.939" y2="130.939" stroke="#F4F4F4" stroke-width="3"/>
<line x1="65.9393" y1="159.939" x2="71.9393" y2="153.939" stroke="#F4F4F4" stroke-width="3"/>
<line x1="89.9393" y1="135.939" x2="95.9393" y2="129.939" stroke="#F4F4F4" stroke-width="3"/>
<line x1="81.9393" y1="143.939" x2="87.9393" y2="137.939" stroke="#F4F4F4" stroke-width="3"/>
<line x1="73.9393" y1="151.939" x2="79.9393" y2="145.939" stroke="#F4F4F4" stroke-width="3"/>
<line x1="98.9393" y1="189.939" x2="104.939" y2="183.939" stroke="#F4F4F4" stroke-width="3"/>
<line x1="119.939" y1="168.939" x2="125.939" y2="162.939" stroke="#F4F4F4" stroke-width="3"/>
<line x1="112.939" y1="175.939" x2="118.939" y2="169.939" stroke="#F4F4F4" stroke-width="3"/>
<line x1="105.939" y1="182.939" x2="111.939" y2="176.939" stroke="#F4F4F4" stroke-width="3"/>
<rect y="192" width="64" height="64" fill="#C4C4C4"/>
<line x1="3.93934" y1="251.939" x2="13.9393" y2="241.939" stroke="#F4F4F4" stroke-width="3"/>
<line x1="14.9393" y1="240.939" x2="25.9393" y2="229.939" stroke="#F4F4F4" stroke-width="3"/>
<line x1="26.9393" y1="228.939" x2="37.9393" y2="217.939" stroke="#F4F4F4" stroke-width="3"/>
<line x1="38.9393" y1="216.939" x2="49.9393" y2="205.939" stroke="#F4F4F4" stroke-width="3"/>
<line x1="50.9393" y1="204.939" x2="60.9393" y2="194.939" stroke="#F4F4F4" stroke-width="3"/>
<line x1="1.93934" y1="223.939" x2="7.93934" y2="217.939" stroke="#F4F4F4" stroke-width="3"/>
<line x1="25.9393" y1="199.939" x2="31.9393" y2="193.939" stroke="#F4F4F4" stroke-width="3"/>
<line x1="17.9393" y1="207.939" x2="23.9393" y2="201.939" stroke="#F4F4F4" stroke-width="3"/>
<line x1="9.93934" y1="215.939" x2="15.9393" y2="209.939" stroke="#F4F4F4" stroke-width="3"/>
<line x1="34.9393" y1="253.939" x2="40.9393" y2="247.939" stroke="#F4F4F4" stroke-width="3"/>
<line x1="55.9393" y1="232.939" x2="61.9393" y2="226.939" stroke="#F4F4F4" stroke-width="3"/>
<line x1="48.9393" y1="239.939" x2="54.9393" y2="233.939" stroke="#F4F4F4" stroke-width="3"/>
<line x1="41.9393" y1="246.939" x2="47.9393" y2="240.939" stroke="#F4F4F4" stroke-width="3"/>
<rect x="64" y="192" width="64" height="64" fill="#C4C4C4"/>
<line x1="67.9393" y1="251.939" x2="77.9393" y2="241.939" stroke="#F4F4F4" stroke-width="3"/>
<line x1="78.9393" y1="240.939" x2="89.9393" y2="229.939" stroke="#F4F4F4" stroke-width="3"/>
<line x1="90.9393" y1="228.939" x2="101.939" y2="217.939" stroke="#F4F4F4" stroke-width="3"/>
<line x1="102.939" y1="216.939" x2="113.939" y2="205.939" stroke="#F4F4F4" stroke-width="3"/>
<line x1="114.939" y1="204.939" x2="124.939" y2="194.939" stroke="#F4F4F4" stroke-width="3"/>
<line x1="65.9393" y1="223.939" x2="71.9393" y2="217.939" stroke="#F4F4F4" stroke-width="3"/>
<line x1="89.9393" y1="199.939" x2="95.9393" y2="193.939" stroke="#F4F4F4" stroke-width="3"/>
<line x1="81.9393" y1="207.939" x2="87.9393" y2="201.939" stroke="#F4F4F4" stroke-width="3"/>
<line x1="73.9393" y1="215.939" x2="79.9393" y2="209.939" stroke="#F4F4F4" stroke-width="3"/>
<line x1="98.9393" y1="253.939" x2="104.939" y2="247.939" stroke="#F4F4F4" stroke-width="3"/>
<line x1="119.939" y1="232.939" x2="125.939" y2="226.939" stroke="#F4F4F4" stroke-width="3"/>
<line x1="112.939" y1="239.939" x2="118.939" y2="233.939" stroke="#F4F4F4" stroke-width="3"/>
<line x1="105.939" y1="246.939" x2="111.939" y2="240.939" stroke="#F4F4F4" stroke-width="3"/>
<rect x="128" y="128" width="64" height="64" fill="#C4C4C4"/>
<line x1="131.939" y1="187.939" x2="141.939" y2="177.939" stroke="#F4F4F4" stroke-width="3"/>
<line x1="142.939" y1="176.939" x2="153.939" y2="165.939" stroke="#F4F4F4" stroke-width="3"/>
<line x1="154.939" y1="164.939" x2="165.939" y2="153.939" stroke="#F4F4F4" stroke-width="3"/>
<line x1="166.939" y1="152.939" x2="177.939" y2="141.939" stroke="#F4F4F4" stroke-width="3"/>
<line x1="178.939" y1="140.939" x2="188.939" y2="130.939" stroke="#F4F4F4" stroke-width="3"/>
<line x1="129.939" y1="159.939" x2="135.939" y2="153.939" stroke="#F4F4F4" stroke-width="3"/>
<line x1="153.939" y1="135.939" x2="159.939" y2="129.939" stroke="#F4F4F4" stroke-width="3"/>
<line x1="145.939" y1="143.939" x2="151.939" y2="137.939" stroke="#F4F4F4" stroke-width="3"/>
<line x1="137.939" y1="151.939" x2="143.939" y2="145.939" stroke="#F4F4F4" stroke-width="3"/>
<line x1="162.939" y1="189.939" x2="168.939" y2="183.939" stroke="#F4F4F4" stroke-width="3"/>
<line x1="183.939" y1="168.939" x2="189.939" y2="162.939" stroke="#F4F4F4" stroke-width="3"/>
<line x1="176.939" y1="175.939" x2="182.939" y2="169.939" stroke="#F4F4F4" stroke-width="3"/>
<line x1="169.939" y1="182.939" x2="175.939" y2="176.939" stroke="#F4F4F4" stroke-width="3"/>
<rect x="192" y="128" width="64" height="64" fill="#C4C4C4"/>
<line x1="195.939" y1="187.939" x2="205.939" y2="177.939" stroke="#F4F4F4" stroke-width="3"/>
<line x1="206.939" y1="176.939" x2="217.939" y2="165.939" stroke="#F4F4F4" stroke-width="3"/>
<line x1="218.939" y1="164.939" x2="229.939" y2="153.939" stroke="#F4F4F4" stroke-width="3"/>
<line x1="230.939" y1="152.939" x2="241.939" y2="141.939" stroke="#F4F4F4" stroke-width="3"/>
<line x1="242.939" y1="140.939" x2="252.939" y2="130.939" stroke="#F4F4F4" stroke-width="3"/>
<line x1="193.939" y1="159.939" x2="199.939" y2="153.939" stroke="#F4F4F4" stroke-width="3"/>
<line x1="217.939" y1="135.939" x2="223.939" y2="129.939" stroke="#F4F4F4" stroke-width="3"/>
<line x1="209.939" y1="143.939" x2="215.939" y2="137.939" stroke="#F4F4F4" stroke-width="3"/>
<line x1="201.939" y1="151.939" x2="207.939" y2="145.939" stroke="#F4F4F4" stroke-width="3"/>
<line x1="226.939" y1="189.939" x2="232.939" y2="183.939" stroke="#F4F4F4" stroke-width="3"/>
<line x1="247.939" y1="168.939" x2="253.939" y2="162.939" stroke="#F4F4F4" stroke-width="3"/>
<line x1="240.939" y1="175.939" x2="246.939" y2="169.939" stroke="#F4F4F4" stroke-width="3"/>
<line x1="233.939" y1="182.939" x2="239.939" y2="176.939" stroke="#F4F4F4" stroke-width="3"/>
<rect x="128" y="192" width="64" height="64" fill="#C4C4C4"/>
<line x1="131.939" y1="251.939" x2="141.939" y2="241.939" stroke="#F4F4F4" stroke-width="3"/>
<line x1="142.939" y1="240.939" x2="153.939" y2="229.939" stroke="#F4F4F4" stroke-width="3"/>
<line x1="154.939" y1="228.939" x2="165.939" y2="217.939" stroke="#F4F4F4" stroke-width="3"/>
<line x1="166.939" y1="216.939" x2="177.939" y2="205.939" stroke="#F4F4F4" stroke-width="3"/>
<line x1="178.939" y1="204.939" x2="188.939" y2="194.939" stroke="#F4F4F4" stroke-width="3"/>
<line x1="129.939" y1="223.939" x2="135.939" y2="217.939" stroke="#F4F4F4" stroke-width="3"/>
<line x1="153.939" y1="199.939" x2="159.939" y2="193.939" stroke="#F4F4F4" stroke-width="3"/>
<line x1="145.939" y1="207.939" x2="151.939" y2="201.939" stroke="#F4F4F4" stroke-width="3"/>
<line x1="137.939" y1="215.939" x2="143.939" y2="209.939" stroke="#F4F4F4" stroke-width="3"/>
<line x1="162.939" y1="253.939" x2="168.939" y2="247.939" stroke="#F4F4F4" stroke-width="3"/>
<line x1="183.939" y1="232.939" x2="189.939" y2="226.939" stroke="#F4F4F4" stroke-width="3"/>
<line x1="176.939" y1="239.939" x2="182.939" y2="233.939" stroke="#F4F4F4" stroke-width="3"/>
<line x1="169.939" y1="246.939" x2="175.939" y2="240.939" stroke="#F4F4F4" stroke-width="3"/>
<rect x="192" y="192" width="64" height="64" fill="#C4C4C4"/>
<line x1="195.939" y1="251.939" x2="205.939" y2="241.939" stroke="#F4F4F4" stroke-width="3"/>
<line x1="206.939" y1="240.939" x2="217.939" y2="229.939" stroke="#F4F4F4" stroke-width="3"/>
<line x1="218.939" y1="228.939" x2="229.939" y2="217.939" stroke="#F4F4F4" stroke-width="3"/>
<line x1="230.939" y1="216.939" x2="241.939" y2="205.939" stroke="#F4F4F4" stroke-width="3"/>
<line x1="242.939" y1="204.939" x2="252.939" y2="194.939" stroke="#F4F4F4" stroke-width="3"/>
<line x1="193.939" y1="223.939" x2="199.939" y2="217.939" stroke="#F4F4F4" stroke-width="3"/>
<line x1="217.939" y1="199.939" x2="223.939" y2="193.939" stroke="#F4F4F4" stroke-width="3"/>
<line x1="209.939" y1="207.939" x2="215.939" y2="201.939" stroke="#F4F4F4" stroke-width="3"/>
<line x1="201.939" y1="215.939" x2="207.939" y2="209.939" stroke="#F4F4F4" stroke-width="3"/>
<line x1="226.939" y1="253.939" x2="232.939" y2="247.939" stroke="#F4F4F4" stroke-width="3"/>
<line x1="247.939" y1="232.939" x2="253.939" y2="226.939" stroke="#F4F4F4" stroke-width="3"/>
<line x1="240.939" y1="239.939" x2="246.939" y2="233.939" stroke="#F4F4F4" stroke-width="3"/>
<line x1="233.939" y1="246.939" x2="239.939" y2="240.939" stroke="#F4F4F4" stroke-width="3"/>
<rect width="64" height="64" fill="#C4C4C4"/>
<line x1="3.93934" y1="59.9393" x2="13.9393" y2="49.9393" stroke="#F4F4F4" stroke-width="3"/>
<line x1="14.9393" y1="48.9393" x2="25.9393" y2="37.9393" stroke="#F4F4F4" stroke-width="3"/>
<line x1="26.9393" y1="36.9393" x2="37.9393" y2="25.9393" stroke="#F4F4F4" stroke-width="3"/>
<line x1="38.9393" y1="24.9393" x2="49.9393" y2="13.9393" stroke="#F4F4F4" stroke-width="3"/>
<line x1="50.9393" y1="12.9393" x2="60.9393" y2="2.93934" stroke="#F4F4F4" stroke-width="3"/>
<line x1="1.93934" y1="31.9393" x2="7.93934" y2="25.9393" stroke="#F4F4F4" stroke-width="3"/>
<line x1="25.9393" y1="7.93934" x2="31.9393" y2="1.93934" stroke="#F4F4F4" stroke-width="3"/>
<line x1="17.9393" y1="15.9393" x2="23.9393" y2="9.93934" stroke="#F4F4F4" stroke-width="3"/>
<line x1="9.93934" y1="23.9393" x2="15.9393" y2="17.9393" stroke="#F4F4F4" stroke-width="3"/>
<line x1="34.9393" y1="61.9393" x2="40.9393" y2="55.9393" stroke="#F4F4F4" stroke-width="3"/>
<line x1="55.9393" y1="40.9393" x2="61.9393" y2="34.9393" stroke="#F4F4F4" stroke-width="3"/>
<line x1="48.9393" y1="47.9393" x2="54.9393" y2="41.9393" stroke="#F4F4F4" stroke-width="3"/>
<line x1="41.9393" y1="54.9393" x2="47.9393" y2="48.9393" stroke="#F4F4F4" stroke-width="3"/>
<rect x="64" width="64" height="64" fill="#C4C4C4"/>
<line x1="67.9393" y1="59.9393" x2="77.9393" y2="49.9393" stroke="#F4F4F4" stroke-width="3"/>
<line x1="78.9393" y1="48.9393" x2="89.9393" y2="37.9393" stroke="#F4F4F4" stroke-width="3"/>
<line x1="90.9393" y1="36.9393" x2="101.939" y2="25.9393" stroke="#F4F4F4" stroke-width="3"/>
<line x1="102.939" y1="24.9393" x2="113.939" y2="13.9393" stroke="#F4F4F4" stroke-width="3"/>
<line x1="114.939" y1="12.9393" x2="124.939" y2="2.93934" stroke="#F4F4F4" stroke-width="3"/>
<line x1="65.9393" y1="31.9393" x2="71.9393" y2="25.9393" stroke="#F4F4F4" stroke-width="3"/>
<line x1="89.9393" y1="7.93934" x2="95.9393" y2="1.93934" stroke="#F4F4F4" stroke-width="3"/>
<line x1="81.9393" y1="15.9393" x2="87.9393" y2="9.93934" stroke="#F4F4F4" stroke-width="3"/>
<line x1="73.9393" y1="23.9393" x2="79.9393" y2="17.9393" stroke="#F4F4F4" stroke-width="3"/>
<line x1="98.9393" y1="61.9393" x2="104.939" y2="55.9393" stroke="#F4F4F4" stroke-width="3"/>
<line x1="119.939" y1="40.9393" x2="125.939" y2="34.9393" stroke="#F4F4F4" stroke-width="3"/>
<line x1="112.939" y1="47.9393" x2="118.939" y2="41.9393" stroke="#F4F4F4" stroke-width="3"/>
<line x1="105.939" y1="54.9393" x2="111.939" y2="48.9393" stroke="#F4F4F4" stroke-width="3"/>
<rect y="64" width="64" height="64" fill="#C4C4C4"/>
<line x1="3.93934" y1="123.939" x2="13.9393" y2="113.939" stroke="#F4F4F4" stroke-width="3"/>
<line x1="14.9393" y1="112.939" x2="25.9393" y2="101.939" stroke="#F4F4F4" stroke-width="3"/>
<line x1="26.9393" y1="100.939" x2="37.9393" y2="89.9393" stroke="#F4F4F4" stroke-width="3"/>
<line x1="38.9393" y1="88.9393" x2="49.9393" y2="77.9393" stroke="#F4F4F4" stroke-width="3"/>
<line x1="50.9393" y1="76.9393" x2="60.9393" y2="66.9393" stroke="#F4F4F4" stroke-width="3"/>
<line x1="1.93934" y1="95.9393" x2="7.93934" y2="89.9393" stroke="#F4F4F4" stroke-width="3"/>
<line x1="25.9393" y1="71.9393" x2="31.9393" y2="65.9393" stroke="#F4F4F4" stroke-width="3"/>
<line x1="17.9393" y1="79.9393" x2="23.9393" y2="73.9393" stroke="#F4F4F4" stroke-width="3"/>
<line x1="9.93934" y1="87.9393" x2="15.9393" y2="81.9393" stroke="#F4F4F4" stroke-width="3"/>
<line x1="34.9393" y1="125.939" x2="40.9393" y2="119.939" stroke="#F4F4F4" stroke-width="3"/>
<line x1="55.9393" y1="104.939" x2="61.9393" y2="98.9393" stroke="#F4F4F4" stroke-width="3"/>
<line x1="48.9393" y1="111.939" x2="54.9393" y2="105.939" stroke="#F4F4F4" stroke-width="3"/>
<line x1="41.9393" y1="118.939" x2="47.9393" y2="112.939" stroke="#F4F4F4" stroke-width="3"/>
<rect x="64" y="64" width="64" height="64" fill="#C4C4C4"/>
<line x1="67.9393" y1="123.939" x2="77.9393" y2="113.939" stroke="#F4F4F4" stroke-width="3"/>
<line x1="78.9393" y1="112.939" x2="89.9393" y2="101.939" stroke="#F4F4F4" stroke-width="3"/>
<line x1="90.9393" y1="100.939" x2="101.939" y2="89.9393" stroke="#F4F4F4" stroke-width="3"/>
<line x1="102.939" y1="88.9393" x2="113.939" y2="77.9393" stroke="#F4F4F4" stroke-width="3"/>
<line x1="114.939" y1="76.9393" x2="124.939" y2="66.9393" stroke="#F4F4F4" stroke-width="3"/>
<line x1="65.9393" y1="95.9393" x2="71.9393" y2="89.9393" stroke="#F4F4F4" stroke-width="3"/>
<line x1="89.9393" y1="71.9393" x2="95.9393" y2="65.9393" stroke="#F4F4F4" stroke-width="3"/>
<line x1="81.9393" y1="79.9393" x2="87.9393" y2="73.9393" stroke="#F4F4F4" stroke-width="3"/>
<line x1="73.9393" y1="87.9393" x2="79.9393" y2="81.9393" stroke="#F4F4F4" stroke-width="3"/>
<line x1="98.9393" y1="125.939" x2="104.939" y2="119.939" stroke="#F4F4F4" stroke-width="3"/>
<line x1="119.939" y1="104.939" x2="125.939" y2="98.9393" stroke="#F4F4F4" stroke-width="3"/>
<line x1="112.939" y1="111.939" x2="118.939" y2="105.939" stroke="#F4F4F4" stroke-width="3"/>
<line x1="105.939" y1="118.939" x2="111.939" y2="112.939" stroke="#F4F4F4" stroke-width="3"/>
</svg>
