<svg width="128" height="128" viewBox="0 0 128 128" fill="none" xmlns="http://www.w3.org/2000/svg">
<circle cx="17" cy="17" r="15" fill="#41DB3E"/>
<circle cx="17" cy="17" r="15" fill="url(#paint0_linear)"/>
<circle cx="28" cy="28" r="10" fill="#6AD267"/>
<circle cx="28" cy="28" r="10" fill="url(#paint1_linear)"/>
<circle cx="54" cy="31" r="10" fill="#6AD267"/>
<circle cx="54" cy="31" r="10" fill="url(#paint2_linear)"/>
<circle cx="33" cy="10" r="10" fill="#6AD267"/>
<circle cx="33" cy="10" r="10" fill="url(#paint3_linear)"/>
<circle cx="10" cy="36" r="10" fill="#6AD267"/>
<circle cx="10" cy="36" r="10" fill="url(#paint4_linear)"/>
<circle cx="47" cy="17" r="15" fill="#41DB3E"/>
<circle cx="47" cy="17" r="15" fill="url(#paint5_linear)"/>
<circle cx="17" cy="47" r="15" fill="#41DB3E"/>
<circle cx="17" cy="47" r="15" fill="url(#paint6_linear)"/>
<circle cx="47" cy="47" r="15" fill="#41DB3E"/>
<circle cx="47" cy="47" r="15" fill="url(#paint7_linear)"/>
<circle cx="32" cy="54" r="10" fill="#6AD267"/>
<circle cx="32" cy="54" r="10" fill="url(#paint8_linear)"/>
<circle cx="38" cy="36" r="10" fill="#6AD267"/>
<circle cx="38" cy="36" r="10" fill="url(#paint9_linear)"/>
<circle cx="48" cy="26" r="10" fill="#6AD267"/>
<circle cx="48" cy="26" r="10" fill="url(#paint10_linear)"/>
<circle cx="31" cy="46" r="10" fill="#6AD267"/>
<circle cx="31" cy="46" r="10" fill="url(#paint11_linear)"/>
<circle cx="81" cy="17" r="15" fill="#41DB3E"/>
<circle cx="81" cy="17" r="15" fill="url(#paint12_linear)"/>
<circle cx="92" cy="28" r="10" fill="#6AD267"/>
<circle cx="92" cy="28" r="10" fill="url(#paint13_linear)"/>
<circle cx="118" cy="31" r="10" fill="#6AD267"/>
<circle cx="118" cy="31" r="10" fill="url(#paint14_linear)"/>
<circle cx="97" cy="10" r="10" fill="#6AD267"/>
<circle cx="97" cy="10" r="10" fill="url(#paint15_linear)"/>
<circle cx="74" cy="36" r="10" fill="#6AD267"/>
<circle cx="74" cy="36" r="10" fill="url(#paint16_linear)"/>
<circle cx="111" cy="17" r="15" fill="#41DB3E"/>
<circle cx="111" cy="17" r="15" fill="url(#paint17_linear)"/>
<circle cx="81" cy="47" r="15" fill="#41DB3E"/>
<circle cx="81" cy="47" r="15" fill="url(#paint18_linear)"/>
<circle cx="111" cy="47" r="15" fill="#41DB3E"/>
<circle cx="111" cy="47" r="15" fill="url(#paint19_linear)"/>
<circle cx="96" cy="54" r="10" fill="#6AD267"/>
<circle cx="96" cy="54" r="10" fill="url(#paint20_linear)"/>
<circle cx="102" cy="36" r="10" fill="#6AD267"/>
<circle cx="102" cy="36" r="10" fill="url(#paint21_linear)"/>
<circle cx="112" cy="26" r="10" fill="#6AD267"/>
<circle cx="112" cy="26" r="10" fill="url(#paint22_linear)"/>
<circle cx="95" cy="46" r="10" fill="#6AD267"/>
<circle cx="95" cy="46" r="10" fill="url(#paint23_linear)"/>
<circle cx="17" cy="81" r="15" fill="#41DB3E"/>
<circle cx="17" cy="81" r="15" fill="url(#paint24_linear)"/>
<circle cx="28" cy="92" r="10" fill="#6AD267"/>
<circle cx="28" cy="92" r="10" fill="url(#paint25_linear)"/>
<circle cx="54" cy="95" r="10" fill="#6AD267"/>
<circle cx="54" cy="95" r="10" fill="url(#paint26_linear)"/>
<circle cx="33" cy="74" r="10" fill="#6AD267"/>
<circle cx="33" cy="74" r="10" fill="url(#paint27_linear)"/>
<circle cx="10" cy="100" r="10" fill="#6AD267"/>
<circle cx="10" cy="100" r="10" fill="url(#paint28_linear)"/>
<circle cx="47" cy="81" r="15" fill="#41DB3E"/>
<circle cx="47" cy="81" r="15" fill="url(#paint29_linear)"/>
<circle cx="17" cy="111" r="15" fill="#41DB3E"/>
<circle cx="17" cy="111" r="15" fill="url(#paint30_linear)"/>
<circle cx="47" cy="111" r="15" fill="#41DB3E"/>
<circle cx="47" cy="111" r="15" fill="url(#paint31_linear)"/>
<circle cx="32" cy="118" r="10" fill="#6AD267"/>
<circle cx="32" cy="118" r="10" fill="url(#paint32_linear)"/>
<circle cx="38" cy="100" r="10" fill="#6AD267"/>
<circle cx="38" cy="100" r="10" fill="url(#paint33_linear)"/>
<circle cx="48" cy="90" r="10" fill="#6AD267"/>
<circle cx="48" cy="90" r="10" fill="url(#paint34_linear)"/>
<circle cx="31" cy="110" r="10" fill="#6AD267"/>
<circle cx="31" cy="110" r="10" fill="url(#paint35_linear)"/>
<circle cx="81" cy="81" r="15" fill="#41DB3E"/>
<circle cx="81" cy="81" r="15" fill="url(#paint36_linear)"/>
<circle cx="92" cy="92" r="10" fill="#6AD267"/>
<circle cx="92" cy="92" r="10" fill="url(#paint37_linear)"/>
<circle cx="118" cy="95" r="10" fill="#6AD267"/>
<circle cx="118" cy="95" r="10" fill="url(#paint38_linear)"/>
<circle cx="97" cy="74" r="10" fill="#6AD267"/>
<circle cx="97" cy="74" r="10" fill="url(#paint39_linear)"/>
<circle cx="74" cy="100" r="10" fill="#6AD267"/>
<circle cx="74" cy="100" r="10" fill="url(#paint40_linear)"/>
<circle cx="111" cy="81" r="15" fill="#41DB3E"/>
<circle cx="111" cy="81" r="15" fill="url(#paint41_linear)"/>
<circle cx="81" cy="111" r="15" fill="#41DB3E"/>
<circle cx="81" cy="111" r="15" fill="url(#paint42_linear)"/>
<circle cx="111" cy="111" r="15" fill="#41DB3E"/>
<circle cx="111" cy="111" r="15" fill="url(#paint43_linear)"/>
<circle cx="96" cy="118" r="10" fill="#6AD267"/>
<circle cx="96" cy="118" r="10" fill="url(#paint44_linear)"/>
<circle cx="102" cy="100" r="10" fill="#6AD267"/>
<circle cx="102" cy="100" r="10" fill="url(#paint45_linear)"/>
<circle cx="112" cy="90" r="10" fill="#6AD267"/>
<circle cx="112" cy="90" r="10" fill="url(#paint46_linear)"/>
<circle cx="95" cy="110" r="10" fill="#6AD267"/>
<circle cx="95" cy="110" r="10" fill="url(#paint47_linear)"/>
<defs>
<linearGradient id="paint0_linear" x1="17" y1="2" x2="17" y2="32" gradientUnits="userSpaceOnUse">
<stop stop-color="#12421D"/>
<stop offset="1" stop-color="white" stop-opacity="0"/>
</linearGradient>
<linearGradient id="paint1_linear" x1="28" y1="18" x2="28" y2="38" gradientUnits="userSpaceOnUse">
<stop stop-color="#12421D"/>
<stop offset="1" stop-color="white" stop-opacity="0"/>
</linearGradient>
<linearGradient id="paint2_linear" x1="54" y1="21" x2="54" y2="41" gradientUnits="userSpaceOnUse">
<stop stop-color="#12421D"/>
<stop offset="1" stop-color="white" stop-opacity="0"/>
</linearGradient>
<linearGradient id="paint3_linear" x1="33" y1="0" x2="33" y2="20" gradientUnits="userSpaceOnUse">
<stop stop-color="#12421D"/>
<stop offset="1" stop-color="white" stop-opacity="0"/>
</linearGradient>
<linearGradient id="paint4_linear" x1="10" y1="26" x2="10" y2="46" gradientUnits="userSpaceOnUse">
<stop stop-color="#12421D"/>
<stop offset="1" stop-color="white" stop-opacity="0"/>
</linearGradient>
<linearGradient id="paint5_linear" x1="47" y1="2" x2="47" y2="32" gradientUnits="userSpaceOnUse">
<stop stop-color="#12421D"/>
<stop offset="1" stop-color="white" stop-opacity="0"/>
</linearGradient>
<linearGradient id="paint6_linear" x1="17" y1="32" x2="17" y2="62" gradientUnits="userSpaceOnUse">
<stop stop-color="#12421D"/>
<stop offset="1" stop-color="white" stop-opacity="0"/>
</linearGradient>
<linearGradient id="paint7_linear" x1="47" y1="32" x2="47" y2="62" gradientUnits="userSpaceOnUse">
<stop stop-color="#12421D"/>
<stop offset="1" stop-color="white" stop-opacity="0"/>
</linearGradient>
<linearGradient id="paint8_linear" x1="32" y1="44" x2="32" y2="64" gradientUnits="userSpaceOnUse">
<stop stop-color="#12421D"/>
<stop offset="1" stop-color="white" stop-opacity="0"/>
</linearGradient>
<linearGradient id="paint9_linear" x1="38" y1="26" x2="38" y2="46" gradientUnits="userSpaceOnUse">
<stop stop-color="#12421D"/>
<stop offset="1" stop-color="white" stop-opacity="0"/>
</linearGradient>
<linearGradient id="paint10_linear" x1="48" y1="16" x2="48" y2="36" gradientUnits="userSpaceOnUse">
<stop stop-color="#12421D"/>
<stop offset="1" stop-color="white" stop-opacity="0"/>
</linearGradient>
<linearGradient id="paint11_linear" x1="31" y1="36" x2="31" y2="56" gradientUnits="userSpaceOnUse">
<stop stop-color="#12421D"/>
<stop offset="1" stop-color="white" stop-opacity="0"/>
</linearGradient>
<linearGradient id="paint12_linear" x1="81" y1="2" x2="81" y2="32" gradientUnits="userSpaceOnUse">
<stop stop-color="#12421D"/>
<stop offset="1" stop-color="white" stop-opacity="0"/>
</linearGradient>
<linearGradient id="paint13_linear" x1="92" y1="18" x2="92" y2="38" gradientUnits="userSpaceOnUse">
<stop stop-color="#12421D"/>
<stop offset="1" stop-color="white" stop-opacity="0"/>
</linearGradient>
<linearGradient id="paint14_linear" x1="118" y1="21" x2="118" y2="41" gradientUnits="userSpaceOnUse">
<stop stop-color="#12421D"/>
<stop offset="1" stop-color="white" stop-opacity="0"/>
</linearGradient>
<linearGradient id="paint15_linear" x1="97" y1="0" x2="97" y2="20" gradientUnits="userSpaceOnUse">
<stop stop-color="#12421D"/>
<stop offset="1" stop-color="white" stop-opacity="0"/>
</linearGradient>
<linearGradient id="paint16_linear" x1="74" y1="26" x2="74" y2="46" gradientUnits="userSpaceOnUse">
<stop stop-color="#12421D"/>
<stop offset="1" stop-color="white" stop-opacity="0"/>
</linearGradient>
<linearGradient id="paint17_linear" x1="111" y1="2" x2="111" y2="32" gradientUnits="userSpaceOnUse">
<stop stop-color="#12421D"/>
<stop offset="1" stop-color="white" stop-opacity="0"/>
</linearGradient>
<linearGradient id="paint18_linear" x1="81" y1="32" x2="81" y2="62" gradientUnits="userSpaceOnUse">
<stop stop-color="#12421D"/>
<stop offset="1" stop-color="white" stop-opacity="0"/>
</linearGradient>
<linearGradient id="paint19_linear" x1="111" y1="32" x2="111" y2="62" gradientUnits="userSpaceOnUse">
<stop stop-color="#12421D"/>
<stop offset="1" stop-color="white" stop-opacity="0"/>
</linearGradient>
<linearGradient id="paint20_linear" x1="96" y1="44" x2="96" y2="64" gradientUnits="userSpaceOnUse">
<stop stop-color="#12421D"/>
<stop offset="1" stop-color="white" stop-opacity="0"/>
</linearGradient>
<linearGradient id="paint21_linear" x1="102" y1="26" x2="102" y2="46" gradientUnits="userSpaceOnUse">
<stop stop-color="#12421D"/>
<stop offset="1" stop-color="white" stop-opacity="0"/>
</linearGradient>
<linearGradient id="paint22_linear" x1="112" y1="16" x2="112" y2="36" gradientUnits="userSpaceOnUse">
<stop stop-color="#12421D"/>
<stop offset="1" stop-color="white" stop-opacity="0"/>
</linearGradient>
<linearGradient id="paint23_linear" x1="95" y1="36" x2="95" y2="56" gradientUnits="userSpaceOnUse">
<stop stop-color="#12421D"/>
<stop offset="1" stop-color="white" stop-opacity="0"/>
</linearGradient>
<linearGradient id="paint24_linear" x1="17" y1="66" x2="17" y2="96" gradientUnits="userSpaceOnUse">
<stop stop-color="#12421D"/>
<stop offset="1" stop-color="white" stop-opacity="0"/>
</linearGradient>
<linearGradient id="paint25_linear" x1="28" y1="82" x2="28" y2="102" gradientUnits="userSpaceOnUse">
<stop stop-color="#12421D"/>
<stop offset="1" stop-color="white" stop-opacity="0"/>
</linearGradient>
<linearGradient id="paint26_linear" x1="54" y1="85" x2="54" y2="105" gradientUnits="userSpaceOnUse">
<stop stop-color="#12421D"/>
<stop offset="1" stop-color="white" stop-opacity="0"/>
</linearGradient>
<linearGradient id="paint27_linear" x1="33" y1="64" x2="33" y2="84" gradientUnits="userSpaceOnUse">
<stop stop-color="#12421D"/>
<stop offset="1" stop-color="white" stop-opacity="0"/>
</linearGradient>
<linearGradient id="paint28_linear" x1="10" y1="90" x2="10" y2="110" gradientUnits="userSpaceOnUse">
<stop stop-color="#12421D"/>
<stop offset="1" stop-color="white" stop-opacity="0"/>
</linearGradient>
<linearGradient id="paint29_linear" x1="47" y1="66" x2="47" y2="96" gradientUnits="userSpaceOnUse">
<stop stop-color="#12421D"/>
<stop offset="1" stop-color="white" stop-opacity="0"/>
</linearGradient>
<linearGradient id="paint30_linear" x1="17" y1="96" x2="17" y2="126" gradientUnits="userSpaceOnUse">
<stop stop-color="#12421D"/>
<stop offset="1" stop-color="white" stop-opacity="0"/>
</linearGradient>
<linearGradient id="paint31_linear" x1="47" y1="96" x2="47" y2="126" gradientUnits="userSpaceOnUse">
<stop stop-color="#12421D"/>
<stop offset="1" stop-color="white" stop-opacity="0"/>
</linearGradient>
<linearGradient id="paint32_linear" x1="32" y1="108" x2="32" y2="128" gradientUnits="userSpaceOnUse">
<stop stop-color="#12421D"/>
<stop offset="1" stop-color="white" stop-opacity="0"/>
</linearGradient>
<linearGradient id="paint33_linear" x1="38" y1="90" x2="38" y2="110" gradientUnits="userSpaceOnUse">
<stop stop-color="#12421D"/>
<stop offset="1" stop-color="white" stop-opacity="0"/>
</linearGradient>
<linearGradient id="paint34_linear" x1="48" y1="80" x2="48" y2="100" gradientUnits="userSpaceOnUse">
<stop stop-color="#12421D"/>
<stop offset="1" stop-color="white" stop-opacity="0"/>
</linearGradient>
<linearGradient id="paint35_linear" x1="31" y1="100" x2="31" y2="120" gradientUnits="userSpaceOnUse">
<stop stop-color="#12421D"/>
<stop offset="1" stop-color="white" stop-opacity="0"/>
</linearGradient>
<linearGradient id="paint36_linear" x1="81" y1="66" x2="81" y2="96" gradientUnits="userSpaceOnUse">
<stop stop-color="#12421D"/>
<stop offset="1" stop-color="white" stop-opacity="0"/>
</linearGradient>
<linearGradient id="paint37_linear" x1="92" y1="82" x2="92" y2="102" gradientUnits="userSpaceOnUse">
<stop stop-color="#12421D"/>
<stop offset="1" stop-color="white" stop-opacity="0"/>
</linearGradient>
<linearGradient id="paint38_linear" x1="118" y1="85" x2="118" y2="105" gradientUnits="userSpaceOnUse">
<stop stop-color="#12421D"/>
<stop offset="1" stop-color="white" stop-opacity="0"/>
</linearGradient>
<linearGradient id="paint39_linear" x1="97" y1="64" x2="97" y2="84" gradientUnits="userSpaceOnUse">
<stop stop-color="#12421D"/>
<stop offset="1" stop-color="white" stop-opacity="0"/>
</linearGradient>
<linearGradient id="paint40_linear" x1="74" y1="90" x2="74" y2="110" gradientUnits="userSpaceOnUse">
<stop stop-color="#12421D"/>
<stop offset="1" stop-color="white" stop-opacity="0"/>
</linearGradient>
<linearGradient id="paint41_linear" x1="111" y1="66" x2="111" y2="96" gradientUnits="userSpaceOnUse">
<stop stop-color="#12421D"/>
<stop offset="1" stop-color="white" stop-opacity="0"/>
</linearGradient>
<linearGradient id="paint42_linear" x1="81" y1="96" x2="81" y2="126" gradientUnits="userSpaceOnUse">
<stop stop-color="#12421D"/>
<stop offset="1" stop-color="white" stop-opacity="0"/>
</linearGradient>
<linearGradient id="paint43_linear" x1="111" y1="96" x2="111" y2="126" gradientUnits="userSpaceOnUse">
<stop stop-color="#12421D"/>
<stop offset="1" stop-color="white" stop-opacity="0"/>
</linearGradient>
<linearGradient id="paint44_linear" x1="96" y1="108" x2="96" y2="128" gradientUnits="userSpaceOnUse">
<stop stop-color="#12421D"/>
<stop offset="1" stop-color="white" stop-opacity="0"/>
</linearGradient>
<linearGradient id="paint45_linear" x1="102" y1="90" x2="102" y2="110" gradientUnits="userSpaceOnUse">
<stop stop-color="#12421D"/>
<stop offset="1" stop-color="white" stop-opacity="0"/>
</linearGradient>
<linearGradient id="paint46_linear" x1="112" y1="80" x2="112" y2="100" gradientUnits="userSpaceOnUse">
<stop stop-color="#12421D"/>
<stop offset="1" stop-color="white" stop-opacity="0"/>
</linearGradient>
<linearGradient id="paint47_linear" x1="95" y1="100" x2="95" y2="120" gradientUnits="userSpaceOnUse">
<stop stop-color="#12421D"/>
<stop offset="1" stop-color="white" stop-opacity="0"/>
</linearGradient>
</defs>
</svg>
