<svg width="128" height="128" viewBox="0 0 128 128" fill="none" xmlns="http://www.w3.org/2000/svg">
<rect width="64" height="64" fill="#C4C4C4"/>
<line x1="3.93934" y1="59.9393" x2="13.9393" y2="49.9393" stroke="#F4F4F4" stroke-width="3"/>
<line x1="14.9393" y1="48.9393" x2="25.9393" y2="37.9393" stroke="#F4F4F4" stroke-width="3"/>
<line x1="26.9393" y1="36.9393" x2="37.9393" y2="25.9393" stroke="#F4F4F4" stroke-width="3"/>
<line x1="38.9393" y1="24.9393" x2="49.9393" y2="13.9393" stroke="#F4F4F4" stroke-width="3"/>
<line x1="50.9393" y1="12.9393" x2="60.9393" y2="2.93934" stroke="#F4F4F4" stroke-width="3"/>
<line x1="1.93934" y1="31.9393" x2="7.93934" y2="25.9393" stroke="#F4F4F4" stroke-width="3"/>
<line x1="25.9393" y1="7.93934" x2="31.9393" y2="1.93934" stroke="#F4F4F4" stroke-width="3"/>
<line x1="17.9393" y1="15.9393" x2="23.9393" y2="9.93934" stroke="#F4F4F4" stroke-width="3"/>
<line x1="9.93934" y1="23.9393" x2="15.9393" y2="17.9393" stroke="#F4F4F4" stroke-width="3"/>
<line x1="34.9393" y1="61.9393" x2="40.9393" y2="55.9393" stroke="#F4F4F4" stroke-width="3"/>
<line x1="55.9393" y1="40.9393" x2="61.9393" y2="34.9393" stroke="#F4F4F4" stroke-width="3"/>
<line x1="48.9393" y1="47.9393" x2="54.9393" y2="41.9393" stroke="#F4F4F4" stroke-width="3"/>
<line x1="41.9393" y1="54.9393" x2="47.9393" y2="48.9393" stroke="#F4F4F4" stroke-width="3"/>
<rect x="64" width="64" height="64" fill="#C4C4C4"/>
<line x1="67.9393" y1="59.9393" x2="77.9393" y2="49.9393" stroke="#F4F4F4" stroke-width="3"/>
<line x1="78.9393" y1="48.9393" x2="89.9393" y2="37.9393" stroke="#F4F4F4" stroke-width="3"/>
<line x1="90.9393" y1="36.9393" x2="101.939" y2="25.9393" stroke="#F4F4F4" stroke-width="3"/>
<line x1="102.939" y1="24.9393" x2="113.939" y2="13.9393" stroke="#F4F4F4" stroke-width="3"/>
<line x1="114.939" y1="12.9393" x2="124.939" y2="2.93934" stroke="#F4F4F4" stroke-width="3"/>
<line x1="65.9393" y1="31.9393" x2="71.9393" y2="25.9393" stroke="#F4F4F4" stroke-width="3"/>
<line x1="89.9393" y1="7.93934" x2="95.9393" y2="1.93934" stroke="#F4F4F4" stroke-width="3"/>
<line x1="81.9393" y1="15.9393" x2="87.9393" y2="9.93934" stroke="#F4F4F4" stroke-width="3"/>
<line x1="73.9393" y1="23.9393" x2="79.9393" y2="17.9393" stroke="#F4F4F4" stroke-width="3"/>
<line x1="98.9393" y1="61.9393" x2="104.939" y2="55.9393" stroke="#F4F4F4" stroke-width="3"/>
<line x1="119.939" y1="40.9393" x2="125.939" y2="34.9393" stroke="#F4F4F4" stroke-width="3"/>
<line x1="112.939" y1="47.9393" x2="118.939" y2="41.9393" stroke="#F4F4F4" stroke-width="3"/>
<line x1="105.939" y1="54.9393" x2="111.939" y2="48.9393" stroke="#F4F4F4" stroke-width="3"/>
<rect y="64" width="64" height="64" fill="#C4C4C4"/>
<line x1="3.93934" y1="123.939" x2="13.9393" y2="113.939" stroke="#F4F4F4" stroke-width="3"/>
<line x1="14.9393" y1="112.939" x2="25.9393" y2="101.939" stroke="#F4F4F4" stroke-width="3"/>
<line x1="26.9393" y1="100.939" x2="37.9393" y2="89.9393" stroke="#F4F4F4" stroke-width="3"/>
<line x1="38.9393" y1="88.9393" x2="49.9393" y2="77.9393" stroke="#F4F4F4" stroke-width="3"/>
<line x1="50.9393" y1="76.9393" x2="60.9393" y2="66.9393" stroke="#F4F4F4" stroke-width="3"/>
<line x1="1.93934" y1="95.9393" x2="7.93934" y2="89.9393" stroke="#F4F4F4" stroke-width="3"/>
<line x1="25.9393" y1="71.9393" x2="31.9393" y2="65.9393" stroke="#F4F4F4" stroke-width="3"/>
<line x1="17.9393" y1="79.9393" x2="23.9393" y2="73.9393" stroke="#F4F4F4" stroke-width="3"/>
<line x1="9.93934" y1="87.9393" x2="15.9393" y2="81.9393" stroke="#F4F4F4" stroke-width="3"/>
<line x1="34.9393" y1="125.939" x2="40.9393" y2="119.939" stroke="#F4F4F4" stroke-width="3"/>
<line x1="55.9393" y1="104.939" x2="61.9393" y2="98.9393" stroke="#F4F4F4" stroke-width="3"/>
<line x1="48.9393" y1="111.939" x2="54.9393" y2="105.939" stroke="#F4F4F4" stroke-width="3"/>
<line x1="41.9393" y1="118.939" x2="47.9393" y2="112.939" stroke="#F4F4F4" stroke-width="3"/>
<rect x="63" y="64" width="64" height="64" fill="#C4C4C4"/>
<line x1="66.9393" y1="123.939" x2="76.9393" y2="113.939" stroke="#F4F4F4" stroke-width="3"/>
<line x1="77.9393" y1="112.939" x2="88.9393" y2="101.939" stroke="#F4F4F4" stroke-width="3"/>
<line x1="89.9393" y1="100.939" x2="100.939" y2="89.9393" stroke="#F4F4F4" stroke-width="3"/>
<line x1="101.939" y1="88.9393" x2="112.939" y2="77.9393" stroke="#F4F4F4" stroke-width="3"/>
<line x1="113.939" y1="76.9393" x2="123.939" y2="66.9393" stroke="#F4F4F4" stroke-width="3"/>
<line x1="64.9393" y1="95.9393" x2="70.9393" y2="89.9393" stroke="#F4F4F4" stroke-width="3"/>
<line x1="88.9393" y1="71.9393" x2="94.9393" y2="65.9393" stroke="#F4F4F4" stroke-width="3"/>
<line x1="80.9393" y1="79.9393" x2="86.9393" y2="73.9393" stroke="#F4F4F4" stroke-width="3"/>
<line x1="72.9393" y1="87.9393" x2="78.9393" y2="81.9393" stroke="#F4F4F4" stroke-width="3"/>
<line x1="97.9393" y1="125.939" x2="103.939" y2="119.939" stroke="#F4F4F4" stroke-width="3"/>
<line x1="118.939" y1="104.939" x2="124.939" y2="98.9393" stroke="#F4F4F4" stroke-width="3"/>
<line x1="111.939" y1="111.939" x2="117.939" y2="105.939" stroke="#F4F4F4" stroke-width="3"/>
<line x1="104.939" y1="118.939" x2="110.939" y2="112.939" stroke="#F4F4F4" stroke-width="3"/>
</svg>
