<svg width="256" height="256" viewBox="0 0 256 256" fill="none" xmlns="http://www.w3.org/2000/svg">
<rect x="56" width="8" height="64" fill="#909090"/>
<rect x="48" y="8" width="8" height="48" fill="#909090"/>
<rect width="8" height="56" fill="#D7D7D7"/>
<rect x="8" y="8" width="8" height="40" fill="#D7D7D7"/>
<rect y="56" width="56" height="8" fill="#909090"/>
<rect x="8" y="48" width="40" height="8" fill="#909090"/>
<rect x="8" width="48" height="8" fill="#D7D7D7"/>
<rect x="16" y="8" width="32" height="8" fill="#D7D7D7"/>
<rect x="16" y="16" width="32" height="32" fill="white"/>
<rect x="120" width="8" height="64" fill="#909090"/>
<rect x="112" y="8" width="8" height="48" fill="#909090"/>
<rect x="64" width="8" height="56" fill="#D7D7D7"/>
<rect x="72" y="8" width="8" height="40" fill="#D7D7D7"/>
<rect x="64" y="56" width="56" height="8" fill="#909090"/>
<rect x="72" y="48" width="40" height="8" fill="#909090"/>
<rect x="72" width="48" height="8" fill="#D7D7D7"/>
<rect x="80" y="8" width="32" height="8" fill="#D7D7D7"/>
<rect x="80" y="16" width="32" height="32" fill="white"/>
<rect x="56" y="64" width="8" height="64" fill="#909090"/>
<rect x="48" y="72" width="8" height="48" fill="#909090"/>
<rect y="64" width="8" height="56" fill="#D7D7D7"/>
<rect x="8" y="72" width="8" height="40" fill="#D7D7D7"/>
<rect y="120" width="56" height="8" fill="#909090"/>
<rect x="8" y="112" width="40" height="8" fill="#909090"/>
<rect x="8" y="64" width="48" height="8" fill="#D7D7D7"/>
<rect x="16" y="72" width="32" height="8" fill="#D7D7D7"/>
<rect x="16" y="80" width="32" height="32" fill="white"/>
<rect x="120" y="64" width="8" height="64" fill="#909090"/>
<rect x="112" y="72" width="8" height="48" fill="#909090"/>
<rect x="64" y="64" width="8" height="56" fill="#D7D7D7"/>
<rect x="72" y="72" width="8" height="40" fill="#D7D7D7"/>
<rect x="64" y="120" width="56" height="8" fill="#909090"/>
<rect x="72" y="112" width="40" height="8" fill="#909090"/>
<rect x="72" y="64" width="48" height="8" fill="#D7D7D7"/>
<rect x="80" y="72" width="32" height="8" fill="#D7D7D7"/>
<rect x="80" y="80" width="32" height="32" fill="white"/>
<rect x="184" width="8" height="64" fill="#909090"/>
<rect x="176" y="8" width="8" height="48" fill="#909090"/>
<rect x="128" width="8" height="56" fill="#D7D7D7"/>
<rect x="136" y="8" width="8" height="40" fill="#D7D7D7"/>
<rect x="128" y="56" width="56" height="8" fill="#909090"/>
<rect x="136" y="48" width="40" height="8" fill="#909090"/>
<rect x="136" width="48" height="8" fill="#D7D7D7"/>
<rect x="144" y="8" width="32" height="8" fill="#D7D7D7"/>
<rect x="144" y="16" width="32" height="32" fill="white"/>
<rect x="184" y="64" width="8" height="64" fill="#909090"/>
<rect x="176" y="72" width="8" height="48" fill="#909090"/>
<rect x="128" y="64" width="8" height="56" fill="#D7D7D7"/>
<rect x="136" y="72" width="8" height="40" fill="#D7D7D7"/>
<rect x="128" y="120" width="56" height="8" fill="#909090"/>
<rect x="136" y="112" width="40" height="8" fill="#909090"/>
<rect x="136" y="64" width="48" height="8" fill="#D7D7D7"/>
<rect x="144" y="72" width="32" height="8" fill="#D7D7D7"/>
<rect x="144" y="80" width="32" height="32" fill="white"/>
<rect x="56" y="128" width="8" height="64" fill="#909090"/>
<rect x="48" y="136" width="8" height="48" fill="#909090"/>
<rect y="128" width="8" height="56" fill="#D7D7D7"/>
<rect x="8" y="136" width="8" height="40" fill="#D7D7D7"/>
<rect y="184" width="56" height="8" fill="#909090"/>
<rect x="8" y="176" width="40" height="8" fill="#909090"/>
<rect x="8" y="128" width="48" height="8" fill="#D7D7D7"/>
<rect x="16" y="136" width="32" height="8" fill="#D7D7D7"/>
<rect x="16" y="144" width="32" height="32" fill="white"/>
<rect x="120" y="128" width="8" height="64" fill="#909090"/>
<rect x="112" y="136" width="8" height="48" fill="#909090"/>
<rect x="64" y="128" width="8" height="56" fill="#D7D7D7"/>
<rect x="72" y="136" width="8" height="40" fill="#D7D7D7"/>
<rect x="64" y="184" width="56" height="8" fill="#909090"/>
<rect x="72" y="176" width="40" height="8" fill="#909090"/>
<rect x="72" y="128" width="48" height="8" fill="#D7D7D7"/>
<rect x="80" y="136" width="32" height="8" fill="#D7D7D7"/>
<rect x="80" y="144" width="32" height="32" fill="white"/>
<rect x="184" y="128" width="8" height="64" fill="#909090"/>
<rect x="176" y="136" width="8" height="48" fill="#909090"/>
<rect x="128" y="128" width="8" height="56" fill="#D7D7D7"/>
<rect x="136" y="136" width="8" height="40" fill="#D7D7D7"/>
<rect x="128" y="184" width="56" height="8" fill="#909090"/>
<rect x="136" y="176" width="40" height="8" fill="#909090"/>
<rect x="136" y="128" width="48" height="8" fill="#D7D7D7"/>
<rect x="144" y="136" width="32" height="8" fill="#D7D7D7"/>
<rect x="144" y="144" width="32" height="32" fill="white"/>
<rect x="248" width="8" height="64" fill="#909090"/>
<rect x="240" y="8" width="8" height="48" fill="#909090"/>
<rect x="192" width="8" height="56" fill="#D7D7D7"/>
<rect x="200" y="8" width="8" height="40" fill="#D7D7D7"/>
<rect x="192" y="56" width="56" height="8" fill="#909090"/>
<rect x="200" y="48" width="40" height="8" fill="#909090"/>
<rect x="200" width="48" height="8" fill="#D7D7D7"/>
<rect x="208" y="8" width="32" height="8" fill="#D7D7D7"/>
<rect x="208" y="16" width="32" height="32" fill="white"/>
<rect x="248" y="64" width="8" height="64" fill="#909090"/>
<rect x="240" y="72" width="8" height="48" fill="#909090"/>
<rect x="192" y="64" width="8" height="56" fill="#D7D7D7"/>
<rect x="200" y="72" width="8" height="40" fill="#D7D7D7"/>
<rect x="192" y="120" width="56" height="8" fill="#909090"/>
<rect x="200" y="112" width="40" height="8" fill="#909090"/>
<rect x="200" y="64" width="48" height="8" fill="#D7D7D7"/>
<rect x="208" y="72" width="32" height="8" fill="#D7D7D7"/>
<rect x="208" y="80" width="32" height="32" fill="white"/>
<rect x="248" y="128" width="8" height="64" fill="#909090"/>
<rect x="240" y="136" width="8" height="48" fill="#909090"/>
<rect x="192" y="128" width="8" height="56" fill="#D7D7D7"/>
<rect x="200" y="136" width="8" height="40" fill="#D7D7D7"/>
<rect x="192" y="184" width="56" height="8" fill="#909090"/>
<rect x="200" y="176" width="40" height="8" fill="#909090"/>
<rect x="200" y="128" width="48" height="8" fill="#D7D7D7"/>
<rect x="208" y="136" width="32" height="8" fill="#D7D7D7"/>
<rect x="208" y="144" width="32" height="32" fill="white"/>
<rect x="56" y="192" width="8" height="64" fill="#909090"/>
<rect x="48" y="200" width="8" height="48" fill="#909090"/>
<rect y="192" width="8" height="56" fill="#D7D7D7"/>
<rect x="8" y="200" width="8" height="40" fill="#D7D7D7"/>
<rect y="248" width="56" height="8" fill="#909090"/>
<rect x="8" y="240" width="40" height="8" fill="#909090"/>
<rect x="8" y="192" width="48" height="8" fill="#D7D7D7"/>
<rect x="16" y="200" width="32" height="8" fill="#D7D7D7"/>
<rect x="16" y="208" width="32" height="32" fill="white"/>
<rect x="120" y="192" width="8" height="64" fill="#909090"/>
<rect x="112" y="200" width="8" height="48" fill="#909090"/>
<rect x="64" y="192" width="8" height="56" fill="#D7D7D7"/>
<rect x="72" y="200" width="8" height="40" fill="#D7D7D7"/>
<rect x="64" y="248" width="56" height="8" fill="#909090"/>
<rect x="72" y="240" width="40" height="8" fill="#909090"/>
<rect x="72" y="192" width="48" height="8" fill="#D7D7D7"/>
<rect x="80" y="200" width="32" height="8" fill="#D7D7D7"/>
<rect x="80" y="208" width="32" height="32" fill="white"/>
<rect x="184" y="192" width="8" height="64" fill="#909090"/>
<rect x="176" y="200" width="8" height="48" fill="#909090"/>
<rect x="128" y="192" width="8" height="56" fill="#D7D7D7"/>
<rect x="136" y="200" width="8" height="40" fill="#D7D7D7"/>
<rect x="128" y="248" width="56" height="8" fill="#909090"/>
<rect x="136" y="240" width="40" height="8" fill="#909090"/>
<rect x="136" y="192" width="48" height="8" fill="#D7D7D7"/>
<rect x="144" y="200" width="32" height="8" fill="#D7D7D7"/>
<rect x="144" y="208" width="32" height="32" fill="white"/>
<rect x="248" y="192" width="8" height="64" fill="#909090"/>
<rect x="240" y="200" width="8" height="48" fill="#909090"/>
<rect x="192" y="192" width="8" height="56" fill="#D7D7D7"/>
<rect x="200" y="200" width="8" height="40" fill="#D7D7D7"/>
<rect x="192" y="248" width="56" height="8" fill="#909090"/>
<rect x="200" y="240" width="40" height="8" fill="#909090"/>
<rect x="200" y="192" width="48" height="8" fill="#D7D7D7"/>
<rect x="208" y="200" width="32" height="8" fill="#D7D7D7"/>
<rect x="208" y="208" width="32" height="32" fill="white"/>
<rect x="248" y="192" width="8" height="64" fill="#909090"/>
<rect x="240" y="200" width="8" height="48" fill="#909090"/>
<rect x="192" y="192" width="8" height="56" fill="#D7D7D7"/>
<rect x="200" y="200" width="8" height="40" fill="#D7D7D7"/>
<rect x="192" y="248" width="56" height="8" fill="#909090"/>
<rect x="200" y="240" width="40" height="8" fill="#909090"/>
<rect x="200" y="192" width="48" height="8" fill="#D7D7D7"/>
<rect x="208" y="200" width="32" height="8" fill="#D7D7D7"/>
<rect x="208" y="208" width="32" height="32" fill="white"/>
</svg>
