<svg width="256" height="256" viewBox="0 0 256 256" fill="none" xmlns="http://www.w3.org/2000/svg">
<rect width="64" height="64" fill="#3950C7"/>
<path d="M8 10C9.11779 8.67206 10.3908 7.64658 12.2222 7.41111C14.0816 7.17204 15.3529 7.8237 16.8889 8.55556C18.3845 9.26815 19.4601 9.4 21.2222 9.4C23.0735 9.4 23.0912 8.22691 24 7" stroke="#AFBEF2" stroke-width="3" stroke-linecap="round" stroke-linejoin="round"/>
<path d="M46 54C47.1178 52.6721 48.3908 51.6466 50.2222 51.4111C52.0816 51.172 53.3529 51.8237 54.8889 52.5556C56.3845 53.2681 57.4601 53.4 59.2222 53.4C61.0735 53.4 61.0912 52.2269 62 51" stroke="#AFBEF2" stroke-width="3" stroke-linecap="round" stroke-linejoin="round"/>
<path d="M16 56C17.1178 54.6721 18.3908 53.6466 20.2222 53.4111C22.0816 53.172 23.3529 53.8237 24.8889 54.5556C26.3845 55.2681 27.4601 55.4 29.2222 55.4C31.0735 55.4 31.0912 54.2269 32 53" stroke="#AFBEF2" stroke-width="3" stroke-linecap="round" stroke-linejoin="round"/>
<path d="M38 40C39.1178 38.6721 40.3908 37.6466 42.2222 37.4111C44.0816 37.172 45.3529 37.8237 46.8889 38.5556C48.3845 39.2681 49.4601 39.4 51.2222 39.4C53.0735 39.4 53.0912 38.2269 54 37" stroke="#AFBEF2" stroke-width="3" stroke-linecap="round" stroke-linejoin="round"/>
<path d="M8 40C9.11779 38.6721 10.3908 37.6466 12.2222 37.4111C14.0816 37.172 15.3529 37.8237 16.8889 38.5556C18.3845 39.2681 19.4601 39.4 21.2222 39.4C23.0735 39.4 23.0912 38.2269 24 37" stroke="#AFBEF2" stroke-width="3" stroke-linecap="round" stroke-linejoin="round"/>
<path d="M46 24C47.1178 22.6721 48.3908 21.6466 50.2222 21.4111C52.0816 21.172 53.3529 21.8237 54.8889 22.5556C56.3845 23.2681 57.4601 23.4 59.2222 23.4C61.0735 23.4 61.0912 22.2269 62 21" stroke="#AFBEF2" stroke-width="3" stroke-linecap="round" stroke-linejoin="round"/>
<path d="M16 24C17.1178 22.6721 18.3908 21.6466 20.2222 21.4111C22.0816 21.172 23.3529 21.8237 24.8889 22.5556C26.3845 23.2681 27.4601 23.4 29.2222 23.4C31.0735 23.4 31.0912 22.2269 32 21" stroke="#AFBEF2" stroke-width="3" stroke-linecap="round" stroke-linejoin="round"/>
<path d="M38 10C39.1178 8.67206 40.3908 7.64658 42.2222 7.41111C44.0816 7.17204 45.3529 7.8237 46.8889 8.55556C48.3845 9.26815 49.4601 9.4 51.2222 9.4C53.0735 9.4 53.0912 8.22691 54 7" stroke="#AFBEF2" stroke-width="3" stroke-linecap="round" stroke-linejoin="round"/>
<rect x="64" width="64" height="64" fill="#3950C7"/>
<path d="M72 10C73.1178 8.67206 74.3908 7.64658 76.2222 7.41111C78.0816 7.17204 79.3529 7.8237 80.8889 8.55556C82.3845 9.26815 83.4601 9.4 85.2222 9.4C87.0735 9.4 87.0912 8.22691 88 7" stroke="#AFBEF2" stroke-width="3" stroke-linecap="round" stroke-linejoin="round"/>
<path d="M110 54C111.118 52.6721 112.391 51.6466 114.222 51.4111C116.082 51.172 117.353 51.8237 118.889 52.5556C120.384 53.2681 121.46 53.4 123.222 53.4C125.073 53.4 125.091 52.2269 126 51" stroke="#AFBEF2" stroke-width="3" stroke-linecap="round" stroke-linejoin="round"/>
<path d="M80 56C81.1178 54.6721 82.3908 53.6466 84.2222 53.4111C86.0816 53.172 87.3529 53.8237 88.8889 54.5556C90.3845 55.2681 91.4601 55.4 93.2222 55.4C95.0735 55.4 95.0912 54.2269 96 53" stroke="#AFBEF2" stroke-width="3" stroke-linecap="round" stroke-linejoin="round"/>
<path d="M102 40C103.118 38.6721 104.391 37.6466 106.222 37.4111C108.082 37.172 109.353 37.8237 110.889 38.5556C112.384 39.2681 113.46 39.4 115.222 39.4C117.073 39.4 117.091 38.2269 118 37" stroke="#AFBEF2" stroke-width="3" stroke-linecap="round" stroke-linejoin="round"/>
<path d="M72 40C73.1178 38.6721 74.3908 37.6466 76.2222 37.4111C78.0816 37.172 79.3529 37.8237 80.8889 38.5556C82.3845 39.2681 83.4601 39.4 85.2222 39.4C87.0735 39.4 87.0912 38.2269 88 37" stroke="#AFBEF2" stroke-width="3" stroke-linecap="round" stroke-linejoin="round"/>
<path d="M110 24C111.118 22.6721 112.391 21.6466 114.222 21.4111C116.082 21.172 117.353 21.8237 118.889 22.5556C120.384 23.2681 121.46 23.4 123.222 23.4C125.073 23.4 125.091 22.2269 126 21" stroke="#AFBEF2" stroke-width="3" stroke-linecap="round" stroke-linejoin="round"/>
<path d="M80 24C81.1178 22.6721 82.3908 21.6466 84.2222 21.4111C86.0816 21.172 87.3529 21.8237 88.8889 22.5556C90.3845 23.2681 91.4601 23.4 93.2222 23.4C95.0735 23.4 95.0912 22.2269 96 21" stroke="#AFBEF2" stroke-width="3" stroke-linecap="round" stroke-linejoin="round"/>
<path d="M102 10C103.118 8.67206 104.391 7.64658 106.222 7.41111C108.082 7.17204 109.353 7.8237 110.889 8.55556C112.384 9.26815 113.46 9.4 115.222 9.4C117.073 9.4 117.091 8.22691 118 7" stroke="#AFBEF2" stroke-width="3" stroke-linecap="round" stroke-linejoin="round"/>
<rect y="64" width="64" height="64" fill="#3950C7"/>
<path d="M8 74C9.11779 72.6721 10.3908 71.6466 12.2222 71.4111C14.0816 71.172 15.3529 71.8237 16.8889 72.5556C18.3845 73.2681 19.4601 73.4 21.2222 73.4C23.0735 73.4 23.0912 72.2269 24 71" stroke="#AFBEF2" stroke-width="3" stroke-linecap="round" stroke-linejoin="round"/>
<path d="M46 118C47.1178 116.672 48.3908 115.647 50.2222 115.411C52.0816 115.172 53.3529 115.824 54.8889 116.556C56.3845 117.268 57.4601 117.4 59.2222 117.4C61.0735 117.4 61.0912 116.227 62 115" stroke="#AFBEF2" stroke-width="3" stroke-linecap="round" stroke-linejoin="round"/>
<path d="M16 120C17.1178 118.672 18.3908 117.647 20.2222 117.411C22.0816 117.172 23.3529 117.824 24.8889 118.556C26.3845 119.268 27.4601 119.4 29.2222 119.4C31.0735 119.4 31.0912 118.227 32 117" stroke="#AFBEF2" stroke-width="3" stroke-linecap="round" stroke-linejoin="round"/>
<path d="M38 104C39.1178 102.672 40.3908 101.647 42.2222 101.411C44.0816 101.172 45.3529 101.824 46.8889 102.556C48.3845 103.268 49.4601 103.4 51.2222 103.4C53.0735 103.4 53.0912 102.227 54 101" stroke="#AFBEF2" stroke-width="3" stroke-linecap="round" stroke-linejoin="round"/>
<path d="M8 104C9.11779 102.672 10.3908 101.647 12.2222 101.411C14.0816 101.172 15.3529 101.824 16.8889 102.556C18.3845 103.268 19.4601 103.4 21.2222 103.4C23.0735 103.4 23.0912 102.227 24 101" stroke="#AFBEF2" stroke-width="3" stroke-linecap="round" stroke-linejoin="round"/>
<path d="M46 88C47.1178 86.6721 48.3908 85.6466 50.2222 85.4111C52.0816 85.172 53.3529 85.8237 54.8889 86.5556C56.3845 87.2681 57.4601 87.4 59.2222 87.4C61.0735 87.4 61.0912 86.2269 62 85" stroke="#AFBEF2" stroke-width="3" stroke-linecap="round" stroke-linejoin="round"/>
<path d="M16 88C17.1178 86.6721 18.3908 85.6466 20.2222 85.4111C22.0816 85.172 23.3529 85.8237 24.8889 86.5556C26.3845 87.2681 27.4601 87.4 29.2222 87.4C31.0735 87.4 31.0912 86.2269 32 85" stroke="#AFBEF2" stroke-width="3" stroke-linecap="round" stroke-linejoin="round"/>
<path d="M38 74C39.1178 72.6721 40.3908 71.6466 42.2222 71.4111C44.0816 71.172 45.3529 71.8237 46.8889 72.5556C48.3845 73.2681 49.4601 73.4 51.2222 73.4C53.0735 73.4 53.0912 72.2269 54 71" stroke="#AFBEF2" stroke-width="3" stroke-linecap="round" stroke-linejoin="round"/>
<rect x="64" y="64" width="64" height="64" fill="#3950C7"/>
<path d="M72 74C73.1178 72.6721 74.3908 71.6466 76.2222 71.4111C78.0816 71.172 79.3529 71.8237 80.8889 72.5556C82.3845 73.2681 83.4601 73.4 85.2222 73.4C87.0735 73.4 87.0912 72.2269 88 71" stroke="#AFBEF2" stroke-width="3" stroke-linecap="round" stroke-linejoin="round"/>
<path d="M110 118C111.118 116.672 112.391 115.647 114.222 115.411C116.082 115.172 117.353 115.824 118.889 116.556C120.384 117.268 121.46 117.4 123.222 117.4C125.073 117.4 125.091 116.227 126 115" stroke="#AFBEF2" stroke-width="3" stroke-linecap="round" stroke-linejoin="round"/>
<path d="M80 120C81.1178 118.672 82.3908 117.647 84.2222 117.411C86.0816 117.172 87.3529 117.824 88.8889 118.556C90.3845 119.268 91.4601 119.4 93.2222 119.4C95.0735 119.4 95.0912 118.227 96 117" stroke="#AFBEF2" stroke-width="3" stroke-linecap="round" stroke-linejoin="round"/>
<path d="M102 104C103.118 102.672 104.391 101.647 106.222 101.411C108.082 101.172 109.353 101.824 110.889 102.556C112.384 103.268 113.46 103.4 115.222 103.4C117.073 103.4 117.091 102.227 118 101" stroke="#AFBEF2" stroke-width="3" stroke-linecap="round" stroke-linejoin="round"/>
<path d="M72 104C73.1178 102.672 74.3908 101.647 76.2222 101.411C78.0816 101.172 79.3529 101.824 80.8889 102.556C82.3845 103.268 83.4601 103.4 85.2222 103.4C87.0735 103.4 87.0912 102.227 88 101" stroke="#AFBEF2" stroke-width="3" stroke-linecap="round" stroke-linejoin="round"/>
<path d="M110 88C111.118 86.6721 112.391 85.6466 114.222 85.4111C116.082 85.172 117.353 85.8237 118.889 86.5556C120.384 87.2681 121.46 87.4 123.222 87.4C125.073 87.4 125.091 86.2269 126 85" stroke="#AFBEF2" stroke-width="3" stroke-linecap="round" stroke-linejoin="round"/>
<path d="M80 88C81.1178 86.6721 82.3908 85.6466 84.2222 85.4111C86.0816 85.172 87.3529 85.8237 88.8889 86.5556C90.3845 87.2681 91.4601 87.4 93.2222 87.4C95.0735 87.4 95.0912 86.2269 96 85" stroke="#AFBEF2" stroke-width="3" stroke-linecap="round" stroke-linejoin="round"/>
<path d="M102 74C103.118 72.6721 104.391 71.6466 106.222 71.4111C108.082 71.172 109.353 71.8237 110.889 72.5556C112.384 73.2681 113.46 73.4 115.222 73.4C117.073 73.4 117.091 72.2269 118 71" stroke="#AFBEF2" stroke-width="3" stroke-linecap="round" stroke-linejoin="round"/>
<rect x="128" width="64" height="64" fill="#3950C7"/>
<path d="M136 10C137.118 8.67206 138.391 7.64658 140.222 7.41111C142.082 7.17204 143.353 7.8237 144.889 8.55556C146.384 9.26815 147.46 9.4 149.222 9.4C151.073 9.4 151.091 8.22691 152 7" stroke="#AFBEF2" stroke-width="3" stroke-linecap="round" stroke-linejoin="round"/>
<path d="M174 54C175.118 52.6721 176.391 51.6466 178.222 51.4111C180.082 51.172 181.353 51.8237 182.889 52.5556C184.384 53.2681 185.46 53.4 187.222 53.4C189.073 53.4 189.091 52.2269 190 51" stroke="#AFBEF2" stroke-width="3" stroke-linecap="round" stroke-linejoin="round"/>
<path d="M144 56C145.118 54.6721 146.391 53.6466 148.222 53.4111C150.082 53.172 151.353 53.8237 152.889 54.5556C154.384 55.2681 155.46 55.4 157.222 55.4C159.073 55.4 159.091 54.2269 160 53" stroke="#AFBEF2" stroke-width="3" stroke-linecap="round" stroke-linejoin="round"/>
<path d="M166 40C167.118 38.6721 168.391 37.6466 170.222 37.4111C172.082 37.172 173.353 37.8237 174.889 38.5556C176.384 39.2681 177.46 39.4 179.222 39.4C181.073 39.4 181.091 38.2269 182 37" stroke="#AFBEF2" stroke-width="3" stroke-linecap="round" stroke-linejoin="round"/>
<path d="M136 40C137.118 38.6721 138.391 37.6466 140.222 37.4111C142.082 37.172 143.353 37.8237 144.889 38.5556C146.384 39.2681 147.46 39.4 149.222 39.4C151.073 39.4 151.091 38.2269 152 37" stroke="#AFBEF2" stroke-width="3" stroke-linecap="round" stroke-linejoin="round"/>
<path d="M174 24C175.118 22.6721 176.391 21.6466 178.222 21.4111C180.082 21.172 181.353 21.8237 182.889 22.5556C184.384 23.2681 185.46 23.4 187.222 23.4C189.073 23.4 189.091 22.2269 190 21" stroke="#AFBEF2" stroke-width="3" stroke-linecap="round" stroke-linejoin="round"/>
<path d="M144 24C145.118 22.6721 146.391 21.6466 148.222 21.4111C150.082 21.172 151.353 21.8237 152.889 22.5556C154.384 23.2681 155.46 23.4 157.222 23.4C159.073 23.4 159.091 22.2269 160 21" stroke="#AFBEF2" stroke-width="3" stroke-linecap="round" stroke-linejoin="round"/>
<path d="M166 10C167.118 8.67206 168.391 7.64658 170.222 7.41111C172.082 7.17204 173.353 7.8237 174.889 8.55556C176.384 9.26815 177.46 9.4 179.222 9.4C181.073 9.4 181.091 8.22691 182 7" stroke="#AFBEF2" stroke-width="3" stroke-linecap="round" stroke-linejoin="round"/>
<rect x="192" width="64" height="64" fill="#3950C7"/>
<path d="M200 10C201.118 8.67206 202.391 7.64658 204.222 7.41111C206.082 7.17204 207.353 7.8237 208.889 8.55556C210.384 9.26815 211.46 9.4 213.222 9.4C215.073 9.4 215.091 8.22691 216 7" stroke="#AFBEF2" stroke-width="3" stroke-linecap="round" stroke-linejoin="round"/>
<path d="M238 54C239.118 52.6721 240.391 51.6466 242.222 51.4111C244.082 51.172 245.353 51.8237 246.889 52.5556C248.384 53.2681 249.46 53.4 251.222 53.4C253.073 53.4 253.091 52.2269 254 51" stroke="#AFBEF2" stroke-width="3" stroke-linecap="round" stroke-linejoin="round"/>
<path d="M208 56C209.118 54.6721 210.391 53.6466 212.222 53.4111C214.082 53.172 215.353 53.8237 216.889 54.5556C218.384 55.2681 219.46 55.4 221.222 55.4C223.073 55.4 223.091 54.2269 224 53" stroke="#AFBEF2" stroke-width="3" stroke-linecap="round" stroke-linejoin="round"/>
<path d="M230 40C231.118 38.6721 232.391 37.6466 234.222 37.4111C236.082 37.172 237.353 37.8237 238.889 38.5556C240.384 39.2681 241.46 39.4 243.222 39.4C245.073 39.4 245.091 38.2269 246 37" stroke="#AFBEF2" stroke-width="3" stroke-linecap="round" stroke-linejoin="round"/>
<path d="M200 40C201.118 38.6721 202.391 37.6466 204.222 37.4111C206.082 37.172 207.353 37.8237 208.889 38.5556C210.384 39.2681 211.46 39.4 213.222 39.4C215.073 39.4 215.091 38.2269 216 37" stroke="#AFBEF2" stroke-width="3" stroke-linecap="round" stroke-linejoin="round"/>
<path d="M238 24C239.118 22.6721 240.391 21.6466 242.222 21.4111C244.082 21.172 245.353 21.8237 246.889 22.5556C248.384 23.2681 249.46 23.4 251.222 23.4C253.073 23.4 253.091 22.2269 254 21" stroke="#AFBEF2" stroke-width="3" stroke-linecap="round" stroke-linejoin="round"/>
<path d="M208 24C209.118 22.6721 210.391 21.6466 212.222 21.4111C214.082 21.172 215.353 21.8237 216.889 22.5556C218.384 23.2681 219.46 23.4 221.222 23.4C223.073 23.4 223.091 22.2269 224 21" stroke="#AFBEF2" stroke-width="3" stroke-linecap="round" stroke-linejoin="round"/>
<path d="M230 10C231.118 8.67206 232.391 7.64658 234.222 7.41111C236.082 7.17204 237.353 7.8237 238.889 8.55556C240.384 9.26815 241.46 9.4 243.222 9.4C245.073 9.4 245.091 8.22691 246 7" stroke="#AFBEF2" stroke-width="3" stroke-linecap="round" stroke-linejoin="round"/>
<rect x="128" y="64" width="64" height="64" fill="#3950C7"/>
<path d="M136 74C137.118 72.6721 138.391 71.6466 140.222 71.4111C142.082 71.172 143.353 71.8237 144.889 72.5556C146.384 73.2681 147.46 73.4 149.222 73.4C151.073 73.4 151.091 72.2269 152 71" stroke="#AFBEF2" stroke-width="3" stroke-linecap="round" stroke-linejoin="round"/>
<path d="M174 118C175.118 116.672 176.391 115.647 178.222 115.411C180.082 115.172 181.353 115.824 182.889 116.556C184.384 117.268 185.46 117.4 187.222 117.4C189.073 117.4 189.091 116.227 190 115" stroke="#AFBEF2" stroke-width="3" stroke-linecap="round" stroke-linejoin="round"/>
<path d="M144 120C145.118 118.672 146.391 117.647 148.222 117.411C150.082 117.172 151.353 117.824 152.889 118.556C154.384 119.268 155.46 119.4 157.222 119.4C159.073 119.4 159.091 118.227 160 117" stroke="#AFBEF2" stroke-width="3" stroke-linecap="round" stroke-linejoin="round"/>
<path d="M166 104C167.118 102.672 168.391 101.647 170.222 101.411C172.082 101.172 173.353 101.824 174.889 102.556C176.384 103.268 177.46 103.4 179.222 103.4C181.073 103.4 181.091 102.227 182 101" stroke="#AFBEF2" stroke-width="3" stroke-linecap="round" stroke-linejoin="round"/>
<path d="M136 104C137.118 102.672 138.391 101.647 140.222 101.411C142.082 101.172 143.353 101.824 144.889 102.556C146.384 103.268 147.46 103.4 149.222 103.4C151.073 103.4 151.091 102.227 152 101" stroke="#AFBEF2" stroke-width="3" stroke-linecap="round" stroke-linejoin="round"/>
<path d="M174 88C175.118 86.6721 176.391 85.6466 178.222 85.4111C180.082 85.172 181.353 85.8237 182.889 86.5556C184.384 87.2681 185.46 87.4 187.222 87.4C189.073 87.4 189.091 86.2269 190 85" stroke="#AFBEF2" stroke-width="3" stroke-linecap="round" stroke-linejoin="round"/>
<path d="M144 88C145.118 86.6721 146.391 85.6466 148.222 85.4111C150.082 85.172 151.353 85.8237 152.889 86.5556C154.384 87.2681 155.46 87.4 157.222 87.4C159.073 87.4 159.091 86.2269 160 85" stroke="#AFBEF2" stroke-width="3" stroke-linecap="round" stroke-linejoin="round"/>
<path d="M166 74C167.118 72.6721 168.391 71.6466 170.222 71.4111C172.082 71.172 173.353 71.8237 174.889 72.5556C176.384 73.2681 177.46 73.4 179.222 73.4C181.073 73.4 181.091 72.2269 182 71" stroke="#AFBEF2" stroke-width="3" stroke-linecap="round" stroke-linejoin="round"/>
<rect x="192" y="64" width="64" height="64" fill="#3950C7"/>
<path d="M200 74C201.118 72.6721 202.391 71.6466 204.222 71.4111C206.082 71.172 207.353 71.8237 208.889 72.5556C210.384 73.2681 211.46 73.4 213.222 73.4C215.073 73.4 215.091 72.2269 216 71" stroke="#AFBEF2" stroke-width="3" stroke-linecap="round" stroke-linejoin="round"/>
<path d="M238 118C239.118 116.672 240.391 115.647 242.222 115.411C244.082 115.172 245.353 115.824 246.889 116.556C248.384 117.268 249.46 117.4 251.222 117.4C253.073 117.4 253.091 116.227 254 115" stroke="#AFBEF2" stroke-width="3" stroke-linecap="round" stroke-linejoin="round"/>
<path d="M208 120C209.118 118.672 210.391 117.647 212.222 117.411C214.082 117.172 215.353 117.824 216.889 118.556C218.384 119.268 219.46 119.4 221.222 119.4C223.073 119.4 223.091 118.227 224 117" stroke="#AFBEF2" stroke-width="3" stroke-linecap="round" stroke-linejoin="round"/>
<path d="M230 104C231.118 102.672 232.391 101.647 234.222 101.411C236.082 101.172 237.353 101.824 238.889 102.556C240.384 103.268 241.46 103.4 243.222 103.4C245.073 103.4 245.091 102.227 246 101" stroke="#AFBEF2" stroke-width="3" stroke-linecap="round" stroke-linejoin="round"/>
<path d="M200 104C201.118 102.672 202.391 101.647 204.222 101.411C206.082 101.172 207.353 101.824 208.889 102.556C210.384 103.268 211.46 103.4 213.222 103.4C215.073 103.4 215.091 102.227 216 101" stroke="#AFBEF2" stroke-width="3" stroke-linecap="round" stroke-linejoin="round"/>
<path d="M238 88C239.118 86.6721 240.391 85.6466 242.222 85.4111C244.082 85.172 245.353 85.8237 246.889 86.5556C248.384 87.2681 249.46 87.4 251.222 87.4C253.073 87.4 253.091 86.2269 254 85" stroke="#AFBEF2" stroke-width="3" stroke-linecap="round" stroke-linejoin="round"/>
<path d="M208 88C209.118 86.6721 210.391 85.6466 212.222 85.4111C214.082 85.172 215.353 85.8237 216.889 86.5556C218.384 87.2681 219.46 87.4 221.222 87.4C223.073 87.4 223.091 86.2269 224 85" stroke="#AFBEF2" stroke-width="3" stroke-linecap="round" stroke-linejoin="round"/>
<path d="M230 74C231.118 72.6721 232.391 71.6466 234.222 71.4111C236.082 71.172 237.353 71.8237 238.889 72.5556C240.384 73.2681 241.46 73.4 243.222 73.4C245.073 73.4 245.091 72.2269 246 71" stroke="#AFBEF2" stroke-width="3" stroke-linecap="round" stroke-linejoin="round"/>
<rect y="128" width="64" height="64" fill="#3950C7"/>
<path d="M8 138C9.11779 136.672 10.3908 135.647 12.2222 135.411C14.0816 135.172 15.3529 135.824 16.8889 136.556C18.3845 137.268 19.4601 137.4 21.2222 137.4C23.0735 137.4 23.0912 136.227 24 135" stroke="#AFBEF2" stroke-width="3" stroke-linecap="round" stroke-linejoin="round"/>
<path d="M46 182C47.1178 180.672 48.3908 179.647 50.2222 179.411C52.0816 179.172 53.3529 179.824 54.8889 180.556C56.3845 181.268 57.4601 181.4 59.2222 181.4C61.0735 181.4 61.0912 180.227 62 179" stroke="#AFBEF2" stroke-width="3" stroke-linecap="round" stroke-linejoin="round"/>
<path d="M16 184C17.1178 182.672 18.3908 181.647 20.2222 181.411C22.0816 181.172 23.3529 181.824 24.8889 182.556C26.3845 183.268 27.4601 183.4 29.2222 183.4C31.0735 183.4 31.0912 182.227 32 181" stroke="#AFBEF2" stroke-width="3" stroke-linecap="round" stroke-linejoin="round"/>
<path d="M38 168C39.1178 166.672 40.3908 165.647 42.2222 165.411C44.0816 165.172 45.3529 165.824 46.8889 166.556C48.3845 167.268 49.4601 167.4 51.2222 167.4C53.0735 167.4 53.0912 166.227 54 165" stroke="#AFBEF2" stroke-width="3" stroke-linecap="round" stroke-linejoin="round"/>
<path d="M8 168C9.11779 166.672 10.3908 165.647 12.2222 165.411C14.0816 165.172 15.3529 165.824 16.8889 166.556C18.3845 167.268 19.4601 167.4 21.2222 167.4C23.0735 167.4 23.0912 166.227 24 165" stroke="#AFBEF2" stroke-width="3" stroke-linecap="round" stroke-linejoin="round"/>
<path d="M46 152C47.1178 150.672 48.3908 149.647 50.2222 149.411C52.0816 149.172 53.3529 149.824 54.8889 150.556C56.3845 151.268 57.4601 151.4 59.2222 151.4C61.0735 151.4 61.0912 150.227 62 149" stroke="#AFBEF2" stroke-width="3" stroke-linecap="round" stroke-linejoin="round"/>
<path d="M16 152C17.1178 150.672 18.3908 149.647 20.2222 149.411C22.0816 149.172 23.3529 149.824 24.8889 150.556C26.3845 151.268 27.4601 151.4 29.2222 151.4C31.0735 151.4 31.0912 150.227 32 149" stroke="#AFBEF2" stroke-width="3" stroke-linecap="round" stroke-linejoin="round"/>
<path d="M38 138C39.1178 136.672 40.3908 135.647 42.2222 135.411C44.0816 135.172 45.3529 135.824 46.8889 136.556C48.3845 137.268 49.4601 137.4 51.2222 137.4C53.0735 137.4 53.0912 136.227 54 135" stroke="#AFBEF2" stroke-width="3" stroke-linecap="round" stroke-linejoin="round"/>
<rect x="64" y="128" width="64" height="64" fill="#3950C7"/>
<path d="M72 138C73.1178 136.672 74.3908 135.647 76.2222 135.411C78.0816 135.172 79.3529 135.824 80.8889 136.556C82.3845 137.268 83.4601 137.4 85.2222 137.4C87.0735 137.4 87.0912 136.227 88 135" stroke="#AFBEF2" stroke-width="3" stroke-linecap="round" stroke-linejoin="round"/>
<path d="M110 182C111.118 180.672 112.391 179.647 114.222 179.411C116.082 179.172 117.353 179.824 118.889 180.556C120.384 181.268 121.46 181.4 123.222 181.4C125.073 181.4 125.091 180.227 126 179" stroke="#AFBEF2" stroke-width="3" stroke-linecap="round" stroke-linejoin="round"/>
<path d="M80 184C81.1178 182.672 82.3908 181.647 84.2222 181.411C86.0816 181.172 87.3529 181.824 88.8889 182.556C90.3845 183.268 91.4601 183.4 93.2222 183.4C95.0735 183.4 95.0912 182.227 96 181" stroke="#AFBEF2" stroke-width="3" stroke-linecap="round" stroke-linejoin="round"/>
<path d="M102 168C103.118 166.672 104.391 165.647 106.222 165.411C108.082 165.172 109.353 165.824 110.889 166.556C112.384 167.268 113.46 167.4 115.222 167.4C117.073 167.4 117.091 166.227 118 165" stroke="#AFBEF2" stroke-width="3" stroke-linecap="round" stroke-linejoin="round"/>
<path d="M72 168C73.1178 166.672 74.3908 165.647 76.2222 165.411C78.0816 165.172 79.3529 165.824 80.8889 166.556C82.3845 167.268 83.4601 167.4 85.2222 167.4C87.0735 167.4 87.0912 166.227 88 165" stroke="#AFBEF2" stroke-width="3" stroke-linecap="round" stroke-linejoin="round"/>
<path d="M110 152C111.118 150.672 112.391 149.647 114.222 149.411C116.082 149.172 117.353 149.824 118.889 150.556C120.384 151.268 121.46 151.4 123.222 151.4C125.073 151.4 125.091 150.227 126 149" stroke="#AFBEF2" stroke-width="3" stroke-linecap="round" stroke-linejoin="round"/>
<path d="M80 152C81.1178 150.672 82.3908 149.647 84.2222 149.411C86.0816 149.172 87.3529 149.824 88.8889 150.556C90.3845 151.268 91.4601 151.4 93.2222 151.4C95.0735 151.4 95.0912 150.227 96 149" stroke="#AFBEF2" stroke-width="3" stroke-linecap="round" stroke-linejoin="round"/>
<path d="M102 138C103.118 136.672 104.391 135.647 106.222 135.411C108.082 135.172 109.353 135.824 110.889 136.556C112.384 137.268 113.46 137.4 115.222 137.4C117.073 137.4 117.091 136.227 118 135" stroke="#AFBEF2" stroke-width="3" stroke-linecap="round" stroke-linejoin="round"/>
<rect y="192" width="64" height="64" fill="#3950C7"/>
<path d="M8 202C9.11779 200.672 10.3908 199.647 12.2222 199.411C14.0816 199.172 15.3529 199.824 16.8889 200.556C18.3845 201.268 19.4601 201.4 21.2222 201.4C23.0735 201.4 23.0912 200.227 24 199" stroke="#AFBEF2" stroke-width="3" stroke-linecap="round" stroke-linejoin="round"/>
<path d="M46 246C47.1178 244.672 48.3908 243.647 50.2222 243.411C52.0816 243.172 53.3529 243.824 54.8889 244.556C56.3845 245.268 57.4601 245.4 59.2222 245.4C61.0735 245.4 61.0912 244.227 62 243" stroke="#AFBEF2" stroke-width="3" stroke-linecap="round" stroke-linejoin="round"/>
<path d="M16 248C17.1178 246.672 18.3908 245.647 20.2222 245.411C22.0816 245.172 23.3529 245.824 24.8889 246.556C26.3845 247.268 27.4601 247.4 29.2222 247.4C31.0735 247.4 31.0912 246.227 32 245" stroke="#AFBEF2" stroke-width="3" stroke-linecap="round" stroke-linejoin="round"/>
<path d="M38 232C39.1178 230.672 40.3908 229.647 42.2222 229.411C44.0816 229.172 45.3529 229.824 46.8889 230.556C48.3845 231.268 49.4601 231.4 51.2222 231.4C53.0735 231.4 53.0912 230.227 54 229" stroke="#AFBEF2" stroke-width="3" stroke-linecap="round" stroke-linejoin="round"/>
<path d="M8 232C9.11779 230.672 10.3908 229.647 12.2222 229.411C14.0816 229.172 15.3529 229.824 16.8889 230.556C18.3845 231.268 19.4601 231.4 21.2222 231.4C23.0735 231.4 23.0912 230.227 24 229" stroke="#AFBEF2" stroke-width="3" stroke-linecap="round" stroke-linejoin="round"/>
<path d="M46 216C47.1178 214.672 48.3908 213.647 50.2222 213.411C52.0816 213.172 53.3529 213.824 54.8889 214.556C56.3845 215.268 57.4601 215.4 59.2222 215.4C61.0735 215.4 61.0912 214.227 62 213" stroke="#AFBEF2" stroke-width="3" stroke-linecap="round" stroke-linejoin="round"/>
<path d="M16 216C17.1178 214.672 18.3908 213.647 20.2222 213.411C22.0816 213.172 23.3529 213.824 24.8889 214.556C26.3845 215.268 27.4601 215.4 29.2222 215.4C31.0735 215.4 31.0912 214.227 32 213" stroke="#AFBEF2" stroke-width="3" stroke-linecap="round" stroke-linejoin="round"/>
<path d="M38 202C39.1178 200.672 40.3908 199.647 42.2222 199.411C44.0816 199.172 45.3529 199.824 46.8889 200.556C48.3845 201.268 49.4601 201.4 51.2222 201.4C53.0735 201.4 53.0912 200.227 54 199" stroke="#AFBEF2" stroke-width="3" stroke-linecap="round" stroke-linejoin="round"/>
<rect x="64" y="192" width="64" height="64" fill="#3950C7"/>
<path d="M72 202C73.1178 200.672 74.3908 199.647 76.2222 199.411C78.0816 199.172 79.3529 199.824 80.8889 200.556C82.3845 201.268 83.4601 201.4 85.2222 201.4C87.0735 201.4 87.0912 200.227 88 199" stroke="#AFBEF2" stroke-width="3" stroke-linecap="round" stroke-linejoin="round"/>
<path d="M110 246C111.118 244.672 112.391 243.647 114.222 243.411C116.082 243.172 117.353 243.824 118.889 244.556C120.384 245.268 121.46 245.4 123.222 245.4C125.073 245.4 125.091 244.227 126 243" stroke="#AFBEF2" stroke-width="3" stroke-linecap="round" stroke-linejoin="round"/>
<path d="M80 248C81.1178 246.672 82.3908 245.647 84.2222 245.411C86.0816 245.172 87.3529 245.824 88.8889 246.556C90.3845 247.268 91.4601 247.4 93.2222 247.4C95.0735 247.4 95.0912 246.227 96 245" stroke="#AFBEF2" stroke-width="3" stroke-linecap="round" stroke-linejoin="round"/>
<path d="M102 232C103.118 230.672 104.391 229.647 106.222 229.411C108.082 229.172 109.353 229.824 110.889 230.556C112.384 231.268 113.46 231.4 115.222 231.4C117.073 231.4 117.091 230.227 118 229" stroke="#AFBEF2" stroke-width="3" stroke-linecap="round" stroke-linejoin="round"/>
<path d="M72 232C73.1178 230.672 74.3908 229.647 76.2222 229.411C78.0816 229.172 79.3529 229.824 80.8889 230.556C82.3845 231.268 83.4601 231.4 85.2222 231.4C87.0735 231.4 87.0912 230.227 88 229" stroke="#AFBEF2" stroke-width="3" stroke-linecap="round" stroke-linejoin="round"/>
<path d="M110 216C111.118 214.672 112.391 213.647 114.222 213.411C116.082 213.172 117.353 213.824 118.889 214.556C120.384 215.268 121.46 215.4 123.222 215.4C125.073 215.4 125.091 214.227 126 213" stroke="#AFBEF2" stroke-width="3" stroke-linecap="round" stroke-linejoin="round"/>
<path d="M80 216C81.1178 214.672 82.3908 213.647 84.2222 213.411C86.0816 213.172 87.3529 213.824 88.8889 214.556C90.3845 215.268 91.4601 215.4 93.2222 215.4C95.0735 215.4 95.0912 214.227 96 213" stroke="#AFBEF2" stroke-width="3" stroke-linecap="round" stroke-linejoin="round"/>
<path d="M102 202C103.118 200.672 104.391 199.647 106.222 199.411C108.082 199.172 109.353 199.824 110.889 200.556C112.384 201.268 113.46 201.4 115.222 201.4C117.073 201.4 117.091 200.227 118 199" stroke="#AFBEF2" stroke-width="3" stroke-linecap="round" stroke-linejoin="round"/>
<rect x="128" y="128" width="64" height="64" fill="#3950C7"/>
<path d="M136 138C137.118 136.672 138.391 135.647 140.222 135.411C142.082 135.172 143.353 135.824 144.889 136.556C146.384 137.268 147.46 137.4 149.222 137.4C151.073 137.4 151.091 136.227 152 135" stroke="#AFBEF2" stroke-width="3" stroke-linecap="round" stroke-linejoin="round"/>
<path d="M174 182C175.118 180.672 176.391 179.647 178.222 179.411C180.082 179.172 181.353 179.824 182.889 180.556C184.384 181.268 185.46 181.4 187.222 181.4C189.073 181.4 189.091 180.227 190 179" stroke="#AFBEF2" stroke-width="3" stroke-linecap="round" stroke-linejoin="round"/>
<path d="M144 184C145.118 182.672 146.391 181.647 148.222 181.411C150.082 181.172 151.353 181.824 152.889 182.556C154.384 183.268 155.46 183.4 157.222 183.4C159.073 183.4 159.091 182.227 160 181" stroke="#AFBEF2" stroke-width="3" stroke-linecap="round" stroke-linejoin="round"/>
<path d="M166 168C167.118 166.672 168.391 165.647 170.222 165.411C172.082 165.172 173.353 165.824 174.889 166.556C176.384 167.268 177.46 167.4 179.222 167.4C181.073 167.4 181.091 166.227 182 165" stroke="#AFBEF2" stroke-width="3" stroke-linecap="round" stroke-linejoin="round"/>
<path d="M136 168C137.118 166.672 138.391 165.647 140.222 165.411C142.082 165.172 143.353 165.824 144.889 166.556C146.384 167.268 147.46 167.4 149.222 167.4C151.073 167.4 151.091 166.227 152 165" stroke="#AFBEF2" stroke-width="3" stroke-linecap="round" stroke-linejoin="round"/>
<path d="M174 152C175.118 150.672 176.391 149.647 178.222 149.411C180.082 149.172 181.353 149.824 182.889 150.556C184.384 151.268 185.46 151.4 187.222 151.4C189.073 151.4 189.091 150.227 190 149" stroke="#AFBEF2" stroke-width="3" stroke-linecap="round" stroke-linejoin="round"/>
<path d="M144 152C145.118 150.672 146.391 149.647 148.222 149.411C150.082 149.172 151.353 149.824 152.889 150.556C154.384 151.268 155.46 151.4 157.222 151.4C159.073 151.4 159.091 150.227 160 149" stroke="#AFBEF2" stroke-width="3" stroke-linecap="round" stroke-linejoin="round"/>
<path d="M166 138C167.118 136.672 168.391 135.647 170.222 135.411C172.082 135.172 173.353 135.824 174.889 136.556C176.384 137.268 177.46 137.4 179.222 137.4C181.073 137.4 181.091 136.227 182 135" stroke="#AFBEF2" stroke-width="3" stroke-linecap="round" stroke-linejoin="round"/>
<rect x="192" y="128" width="64" height="64" fill="#3950C7"/>
<path d="M200 138C201.118 136.672 202.391 135.647 204.222 135.411C206.082 135.172 207.353 135.824 208.889 136.556C210.384 137.268 211.46 137.4 213.222 137.4C215.073 137.4 215.091 136.227 216 135" stroke="#AFBEF2" stroke-width="3" stroke-linecap="round" stroke-linejoin="round"/>
<path d="M238 182C239.118 180.672 240.391 179.647 242.222 179.411C244.082 179.172 245.353 179.824 246.889 180.556C248.384 181.268 249.46 181.4 251.222 181.4C253.073 181.4 253.091 180.227 254 179" stroke="#AFBEF2" stroke-width="3" stroke-linecap="round" stroke-linejoin="round"/>
<path d="M208 184C209.118 182.672 210.391 181.647 212.222 181.411C214.082 181.172 215.353 181.824 216.889 182.556C218.384 183.268 219.46 183.4 221.222 183.4C223.073 183.4 223.091 182.227 224 181" stroke="#AFBEF2" stroke-width="3" stroke-linecap="round" stroke-linejoin="round"/>
<path d="M230 168C231.118 166.672 232.391 165.647 234.222 165.411C236.082 165.172 237.353 165.824 238.889 166.556C240.384 167.268 241.46 167.4 243.222 167.4C245.073 167.4 245.091 166.227 246 165" stroke="#AFBEF2" stroke-width="3" stroke-linecap="round" stroke-linejoin="round"/>
<path d="M200 168C201.118 166.672 202.391 165.647 204.222 165.411C206.082 165.172 207.353 165.824 208.889 166.556C210.384 167.268 211.46 167.4 213.222 167.4C215.073 167.4 215.091 166.227 216 165" stroke="#AFBEF2" stroke-width="3" stroke-linecap="round" stroke-linejoin="round"/>
<path d="M238 152C239.118 150.672 240.391 149.647 242.222 149.411C244.082 149.172 245.353 149.824 246.889 150.556C248.384 151.268 249.46 151.4 251.222 151.4C253.073 151.4 253.091 150.227 254 149" stroke="#AFBEF2" stroke-width="3" stroke-linecap="round" stroke-linejoin="round"/>
<path d="M208 152C209.118 150.672 210.391 149.647 212.222 149.411C214.082 149.172 215.353 149.824 216.889 150.556C218.384 151.268 219.46 151.4 221.222 151.4C223.073 151.4 223.091 150.227 224 149" stroke="#AFBEF2" stroke-width="3" stroke-linecap="round" stroke-linejoin="round"/>
<path d="M230 138C231.118 136.672 232.391 135.647 234.222 135.411C236.082 135.172 237.353 135.824 238.889 136.556C240.384 137.268 241.46 137.4 243.222 137.4C245.073 137.4 245.091 136.227 246 135" stroke="#AFBEF2" stroke-width="3" stroke-linecap="round" stroke-linejoin="round"/>
<rect x="128" y="192" width="64" height="64" fill="#3950C7"/>
<path d="M136 202C137.118 200.672 138.391 199.647 140.222 199.411C142.082 199.172 143.353 199.824 144.889 200.556C146.384 201.268 147.46 201.4 149.222 201.4C151.073 201.4 151.091 200.227 152 199" stroke="#AFBEF2" stroke-width="3" stroke-linecap="round" stroke-linejoin="round"/>
<path d="M174 246C175.118 244.672 176.391 243.647 178.222 243.411C180.082 243.172 181.353 243.824 182.889 244.556C184.384 245.268 185.46 245.4 187.222 245.4C189.073 245.4 189.091 244.227 190 243" stroke="#AFBEF2" stroke-width="3" stroke-linecap="round" stroke-linejoin="round"/>
<path d="M144 248C145.118 246.672 146.391 245.647 148.222 245.411C150.082 245.172 151.353 245.824 152.889 246.556C154.384 247.268 155.46 247.4 157.222 247.4C159.073 247.4 159.091 246.227 160 245" stroke="#AFBEF2" stroke-width="3" stroke-linecap="round" stroke-linejoin="round"/>
<path d="M166 232C167.118 230.672 168.391 229.647 170.222 229.411C172.082 229.172 173.353 229.824 174.889 230.556C176.384 231.268 177.46 231.4 179.222 231.4C181.073 231.4 181.091 230.227 182 229" stroke="#AFBEF2" stroke-width="3" stroke-linecap="round" stroke-linejoin="round"/>
<path d="M136 232C137.118 230.672 138.391 229.647 140.222 229.411C142.082 229.172 143.353 229.824 144.889 230.556C146.384 231.268 147.46 231.4 149.222 231.4C151.073 231.4 151.091 230.227 152 229" stroke="#AFBEF2" stroke-width="3" stroke-linecap="round" stroke-linejoin="round"/>
<path d="M174 216C175.118 214.672 176.391 213.647 178.222 213.411C180.082 213.172 181.353 213.824 182.889 214.556C184.384 215.268 185.46 215.4 187.222 215.4C189.073 215.4 189.091 214.227 190 213" stroke="#AFBEF2" stroke-width="3" stroke-linecap="round" stroke-linejoin="round"/>
<path d="M144 216C145.118 214.672 146.391 213.647 148.222 213.411C150.082 213.172 151.353 213.824 152.889 214.556C154.384 215.268 155.46 215.4 157.222 215.4C159.073 215.4 159.091 214.227 160 213" stroke="#AFBEF2" stroke-width="3" stroke-linecap="round" stroke-linejoin="round"/>
<path d="M166 202C167.118 200.672 168.391 199.647 170.222 199.411C172.082 199.172 173.353 199.824 174.889 200.556C176.384 201.268 177.46 201.4 179.222 201.4C181.073 201.4 181.091 200.227 182 199" stroke="#AFBEF2" stroke-width="3" stroke-linecap="round" stroke-linejoin="round"/>
<rect x="192" y="192" width="64" height="64" fill="#3950C7"/>
<path d="M200 202C201.118 200.672 202.391 199.647 204.222 199.411C206.082 199.172 207.353 199.824 208.889 200.556C210.384 201.268 211.46 201.4 213.222 201.4C215.073 201.4 215.091 200.227 216 199" stroke="#AFBEF2" stroke-width="3" stroke-linecap="round" stroke-linejoin="round"/>
<path d="M238 246C239.118 244.672 240.391 243.647 242.222 243.411C244.082 243.172 245.353 243.824 246.889 244.556C248.384 245.268 249.46 245.4 251.222 245.4C253.073 245.4 253.091 244.227 254 243" stroke="#AFBEF2" stroke-width="3" stroke-linecap="round" stroke-linejoin="round"/>
<path d="M208 248C209.118 246.672 210.391 245.647 212.222 245.411C214.082 245.172 215.353 245.824 216.889 246.556C218.384 247.268 219.46 247.4 221.222 247.4C223.073 247.4 223.091 246.227 224 245" stroke="#AFBEF2" stroke-width="3" stroke-linecap="round" stroke-linejoin="round"/>
<path d="M230 232C231.118 230.672 232.391 229.647 234.222 229.411C236.082 229.172 237.353 229.824 238.889 230.556C240.384 231.268 241.46 231.4 243.222 231.4C245.073 231.4 245.091 230.227 246 229" stroke="#AFBEF2" stroke-width="3" stroke-linecap="round" stroke-linejoin="round"/>
<path d="M200 232C201.118 230.672 202.391 229.647 204.222 229.411C206.082 229.172 207.353 229.824 208.889 230.556C210.384 231.268 211.46 231.4 213.222 231.4C215.073 231.4 215.091 230.227 216 229" stroke="#AFBEF2" stroke-width="3" stroke-linecap="round" stroke-linejoin="round"/>
<path d="M238 216C239.118 214.672 240.391 213.647 242.222 213.411C244.082 213.172 245.353 213.824 246.889 214.556C248.384 215.268 249.46 215.4 251.222 215.4C253.073 215.4 253.091 214.227 254 213" stroke="#AFBEF2" stroke-width="3" stroke-linecap="round" stroke-linejoin="round"/>
<path d="M208 216C209.118 214.672 210.391 213.647 212.222 213.411C214.082 213.172 215.353 213.824 216.889 214.556C218.384 215.268 219.46 215.4 221.222 215.4C223.073 215.4 223.091 214.227 224 213" stroke="#AFBEF2" stroke-width="3" stroke-linecap="round" stroke-linejoin="round"/>
<path d="M230 202C231.118 200.672 232.391 199.647 234.222 199.411C236.082 199.172 237.353 199.824 238.889 200.556C240.384 201.268 241.46 201.4 243.222 201.4C245.073 201.4 245.091 200.227 246 199" stroke="#AFBEF2" stroke-width="3" stroke-linecap="round" stroke-linejoin="round"/>
</svg>
