<svg width="64" height="64" viewBox="0 0 64 64" fill="none" xmlns="http://www.w3.org/2000/svg">
<rect width="64" height="64" fill="#3950C7"/>
<path d="M8 10C9.11779 8.67206 10.3908 7.64658 12.2222 7.41111C14.0816 7.17204 15.3529 7.8237 16.8889 8.55556C18.3845 9.26815 19.4601 9.4 21.2222 9.4C23.0735 9.4 23.0912 8.22691 24 7" stroke="#AFBEF2" stroke-width="3" stroke-linecap="round" stroke-linejoin="round"/>
<path d="M46 54C47.1178 52.6721 48.3908 51.6466 50.2222 51.4111C52.0816 51.172 53.3529 51.8237 54.8889 52.5556C56.3845 53.2681 57.4601 53.4 59.2222 53.4C61.0735 53.4 61.0912 52.2269 62 51" stroke="#AFBEF2" stroke-width="3" stroke-linecap="round" stroke-linejoin="round"/>
<path d="M16 56C17.1178 54.6721 18.3908 53.6466 20.2222 53.4111C22.0816 53.172 23.3529 53.8237 24.8889 54.5556C26.3845 55.2681 27.4601 55.4 29.2222 55.4C31.0735 55.4 31.0912 54.2269 32 53" stroke="#AFBEF2" stroke-width="3" stroke-linecap="round" stroke-linejoin="round"/>
<path d="M38 40C39.1178 38.6721 40.3908 37.6466 42.2222 37.4111C44.0816 37.172 45.3529 37.8237 46.8889 38.5556C48.3845 39.2681 49.4601 39.4 51.2222 39.4C53.0735 39.4 53.0912 38.2269 54 37" stroke="#AFBEF2" stroke-width="3" stroke-linecap="round" stroke-linejoin="round"/>
<path d="M8 40C9.11779 38.6721 10.3908 37.6466 12.2222 37.4111C14.0816 37.172 15.3529 37.8237 16.8889 38.5556C18.3845 39.2681 19.4601 39.4 21.2222 39.4C23.0735 39.4 23.0912 38.2269 24 37" stroke="#AFBEF2" stroke-width="3" stroke-linecap="round" stroke-linejoin="round"/>
<path d="M46 24C47.1178 22.6721 48.3908 21.6466 50.2222 21.4111C52.0816 21.172 53.3529 21.8237 54.8889 22.5556C56.3845 23.2681 57.4601 23.4 59.2222 23.4C61.0735 23.4 61.0912 22.2269 62 21" stroke="#AFBEF2" stroke-width="3" stroke-linecap="round" stroke-linejoin="round"/>
<path d="M16 24C17.1178 22.6721 18.3908 21.6466 20.2222 21.4111C22.0816 21.172 23.3529 21.8237 24.8889 22.5556C26.3845 23.2681 27.4601 23.4 29.2222 23.4C31.0735 23.4 31.0912 22.2269 32 21" stroke="#AFBEF2" stroke-width="3" stroke-linecap="round" stroke-linejoin="round"/>
<path d="M38 10C39.1178 8.67206 40.3908 7.64658 42.2222 7.41111C44.0816 7.17204 45.3529 7.8237 46.8889 8.55556C48.3845 9.26815 49.4601 9.4 51.2222 9.4C53.0735 9.4 53.0912 8.22691 54 7" stroke="#AFBEF2" stroke-width="3" stroke-linecap="round" stroke-linejoin="round"/>
</svg>
